M48
; DRILL file KiCad 10.0.0 date 2026-08-28T08:53:40
; FORMAT={-:-/ absolute / metric / decimal}
; #@! TF.CreationDate,2026-08-28T08:53:40+10:00
; #@! TF.GenerationSoftware,Kicad,Pcbnew,10.0.0
; #@! TF.FileFunction,Plated,1,4,PTH
FMAT,2
METRIC
; #@! TA.AperFunction,Plated,PTH,ViaDrill
T1C0.300
; #@! TA.AperFunction,Plated,PTH,ComponentDrill
T2C0.500
; #@! TA.AperFunction,Plated,PTH,ComponentDrill
T3C0.600
; #@! TA.AperFunction,Plated,PTH,ComponentDrill
T4C0.650
; #@! TA.AperFunction,Plated,PTH,ComponentDrill
T5C1.000
; #@! TA.AperFunction,Plated,PTH,ComponentDrill
T6C1.500
; #@! TA.AperFunction,Plated,PTH,ComponentDrill
T7C1.700
; #@! TA.AperFunction,Plated,PTH,ComponentDrill
T8C1.800
; #@! TA.AperFunction,Plated,PTH,ComponentDrill
T9C3.200
%
G90
G05
T1
X116.725Y-64.8
X116.9Y-94.575
X116.9Y-99.9
X117.1Y-79.1
X119.2Y-116.3
X119.8Y-111.6
X121.4Y-97.6
X123.4Y-65.15
X124.075Y-64.15
X124.1Y-102.3
X126.5Y-86.3
X127.5Y-94.8
X128.0Y-100.4
X129.9Y-102.4
X130.1Y-92.0
X130.2Y-82.2
X131.497Y-80.053
X131.5Y-84.3
X132.0Y-97.134
X133.2Y-101.8
X138.8Y-82.1
X139.123Y-75.144
X139.2Y-76.1
X139.3Y-105.3
X139.9Y-74.8
X140.0Y-73.9
X140.825Y-82.225
X141.5Y-78.85
X141.7Y-72.5
X142.0Y-71.8
X142.6Y-70.2
X142.6Y-103.5
X142.8Y-76.9
X143.0Y-97.9
X143.65Y-78.1
X144.2Y-98.35
X144.9Y-61.6
X145.1Y-95.5
X146.3Y-85.4
X146.3Y-86.5
X146.3Y-87.5
X146.3Y-88.6
X146.3Y-89.8
X146.4Y-98.2
X146.7Y-55.8
X146.7Y-62.2
X147.0Y-76.0
X147.3Y-85.4
X147.4Y-89.9
X147.71Y-77.5
X148.0Y-105.1
X148.3Y-71.8
X148.3Y-83.3
X148.3Y-84.3
X148.3Y-85.3
X148.38Y-122.74
X148.4Y-89.9
X148.7Y-67.6
X148.87Y-76.29
X148.9Y-58.9
X149.06Y-73.46
X149.3Y-89.9
X149.4Y-83.2
X150.1Y-89.9
X150.31Y-126.51
X150.32Y-74.62
X150.5Y-83.2
X150.725Y-119.75
X151.0Y-63.6
X151.1Y-89.9
X151.19Y-75.29
X151.6Y-83.2
X151.75Y-95.181
X151.75Y-112.925
X151.85Y-93.15
X152.1Y-89.9
X152.125Y-70.27
X152.3Y-65.2
X152.45Y-117.525
X152.6Y-121.2
X152.7Y-77.5
X152.8Y-83.2
X152.9Y-89.9
X153.0Y-103.6
X153.325Y-80.0
X153.635Y-71.25
X153.7Y-83.0
X153.8Y-57.4
X153.8Y-89.9
X153.9Y-88.9
X154.6Y-83.0
X155.0Y-88.9
X155.137Y-103.544
X155.175Y-81.0
X155.3Y-83.0
X155.9Y-71.8
X156.0Y-88.9
X156.064Y-83.025
X156.064Y-83.9
X156.064Y-84.8
X156.1Y-85.6
X156.5Y-101.5
X156.535Y-62.547
X157.5Y-98.1
X157.5Y-99.7
X158.1Y-66.4
X158.1Y-93.1
X158.135Y-79.025
X158.2Y-120.95
X158.9Y-98.0
X159.06Y-122.08
X159.166Y-71.719
X159.245Y-72.936
X159.35Y-79.15
X159.4Y-84.5
X159.45Y-88.169
X159.85Y-90.2
X159.9Y-60.5
X159.9Y-88.8
X160.35Y-70.2
X160.675Y-119.3
X160.7Y-64.854
X160.85Y-111.225
X161.118Y-69.732
X161.2Y-93.0
X161.4Y-97.9
X161.7Y-76.1
X161.7Y-77.5
X161.793Y-70.407
X161.8Y-84.1
X161.8Y-92.2
X161.95Y-91.5
X162.15Y-112.5
X162.35Y-79.2
X162.375Y-100.625
X162.5Y-88.1
X162.6Y-87.05
X162.84Y-70.96
X162.85Y-91.268
X163.154Y-80.713
X163.3Y-102.0
X163.45Y-103.5
X163.65Y-92.525
X163.7Y-91.2
X163.8Y-74.1
X163.85Y-81.2
X164.0Y-88.85
X164.45Y-77.1
X165.0Y-91.75
X165.35Y-78.25
X165.35Y-87.3
X166.35Y-90.05
X166.85Y-65.0
X167.19Y-85.06
X167.342Y-81.261
X167.55Y-79.05
X167.9Y-98.3
X167.95Y-90.4
X168.02Y-85.36
X168.15Y-63.6
X168.426Y-81.355
X168.6Y-75.2
X168.8Y-78.55
X168.9Y-72.5
X169.594Y-58.106
X170.0Y-97.9
X170.6Y-60.1
X170.64Y-80.73
X171.087Y-88.032
X171.151Y-88.88
X171.3Y-78.45
X172.0Y-111.9
X172.35Y-94.05
X172.4Y-96.4
X172.55Y-80.0
X173.55Y-94.0
X173.7Y-68.75
X173.8Y-74.0
X174.12Y-76.56
X174.36Y-75.5
X174.4Y-54.9
X174.785Y-68.965
X174.85Y-86.5
X175.124Y-74.324
X175.95Y-89.5
X176.1Y-83.35
X179.6Y-125.0
X180.5Y-106.5
X180.605Y-86.705
X181.1Y-96.9
X181.75Y-83.25
X182.4Y-94.0
X182.5Y-87.0
X182.9Y-102.6
X183.0Y-82.5
X183.4Y-83.5
X183.4Y-85.651
X184.33Y-93.35
X184.4Y-78.2
X186.02Y-104.65
X186.2Y-107.1
X187.675Y-105.175
X188.5Y-118.275
X188.7Y-72.1
X189.6Y-70.025
X189.7Y-68.025
X189.85Y-95.15
X190.4Y-66.025
X190.7Y-77.6
X190.8Y-93.8
X191.85Y-105.075
X192.6Y-77.6
X192.7Y-59.9
X192.8Y-113.3
X192.9Y-105.7
X192.9Y-112.1
T2
X117.6Y-53.0
X117.6Y-123.0
X118.303Y-51.303
X118.303Y-54.697
X118.303Y-121.303
X118.303Y-124.697
X120.0Y-50.6
X120.0Y-55.4
X120.0Y-120.6
X120.0Y-125.4
X121.697Y-51.303
X121.697Y-54.697
X121.697Y-121.303
X121.697Y-124.697
X122.4Y-53.0
X122.4Y-123.0
X187.6Y-53.0
X187.6Y-123.0
X188.303Y-51.303
X188.303Y-54.697
X188.303Y-121.303
X188.303Y-124.697
X190.0Y-50.6
X190.0Y-55.4
X190.0Y-120.6
X190.0Y-125.4
X191.697Y-51.303
X191.697Y-54.697
X191.697Y-121.303
X191.697Y-124.697
X192.4Y-53.0
X192.4Y-123.0
T4
X120.355Y-61.705
X120.355Y-62.975
X120.355Y-64.245
X120.355Y-65.515
X120.355Y-66.785
X121.625Y-61.705
X121.625Y-62.975
X121.625Y-64.245
X121.625Y-65.515
X121.625Y-66.785
T5
X146.037Y-51.625
X148.537Y-51.625
X151.037Y-51.625
X153.537Y-51.625
X156.037Y-51.625
X162.3Y-51.625
X164.8Y-51.625
X167.3Y-51.625
X169.8Y-51.625
X172.3Y-51.625
X180.5Y-110.0
X180.5Y-117.6
T6
X179.5Y-56.3
T7
X176.96Y-53.76
X176.96Y-58.84
X182.04Y-53.76
X182.04Y-58.84
T8
X127.8Y-108.37
X127.8Y-113.87
X129.4Y-62.1
X129.4Y-67.6
X136.3Y-108.27
X136.3Y-113.77
X137.9Y-62.1
X137.9Y-67.6
X144.7Y-108.27
X144.7Y-113.77
X167.3Y-108.37
X167.3Y-113.87
T9
X120.0Y-53.0
X120.0Y-123.0
X190.0Y-53.0
X190.0Y-123.0
T3
G00X187.12Y-95.08
M15
G01X188.22Y-95.08
M16
G05
G00X187.12Y-103.72
M15
G01X188.22Y-103.72
M16
G05
G00X191.55Y-95.08
M15
G01X192.15Y-95.08
M16
G05
G00X191.55Y-103.72
M15
G01X192.15Y-103.72
M16
G05
M30
