%TF.GenerationSoftware,KiCad,Pcbnew,10.0.0*%
%TF.CreationDate,2026-08-28T08:53:37+10:00*%
%TF.ProjectId,flightcomputer2,666c6967-6874-4636-9f6d-707574657232,rev?*%
%TF.SameCoordinates,Original*%
%TF.FileFunction,Copper,L1,Top*%
%TF.FilePolarity,Positive*%
%FSLAX46Y46*%
G04 Gerber Fmt 4.6, Leading zero omitted, Abs format (unit mm)*
G04 Created by KiCad (PCBNEW 10.0.0) date 2026-08-28 08:53:37*
%MOMM*%
%LPD*%
G01*
G04 APERTURE LIST*
G04 Aperture macros list*
%AMRoundRect*
0 Rectangle with rounded corners*
0 $1 Rounding radius*
0 $2 $3 $4 $5 $6 $7 $8 $9 X,Y pos of 4 corners*
0 Add a 4 corners polygon primitive as box body*
4,1,4,$2,$3,$4,$5,$6,$7,$8,$9,$2,$3,0*
0 Add four circle primitives for the rounded corners*
1,1,$1+$1,$2,$3*
1,1,$1+$1,$4,$5*
1,1,$1+$1,$6,$7*
1,1,$1+$1,$8,$9*
0 Add four rect primitives between the rounded corners*
20,1,$1+$1,$2,$3,$4,$5,0*
20,1,$1+$1,$4,$5,$6,$7,0*
20,1,$1+$1,$6,$7,$8,$9,0*
20,1,$1+$1,$8,$9,$2,$3,0*%
%AMFreePoly0*
4,1,6,1.000000,0.000000,0.500000,-0.750000,-0.500000,-0.750000,-0.500000,0.750000,0.500000,0.750000,1.000000,0.000000,1.000000,0.000000,$1*%
%AMFreePoly1*
4,1,6,0.500000,-0.750000,-0.650000,-0.750000,-0.150000,0.000000,-0.650000,0.750000,0.500000,0.750000,0.500000,-0.750000,0.500000,-0.750000,$1*%
G04 Aperture macros list end*
%TA.AperFunction,SMDPad,CuDef*%
%ADD10R,1.500000X1.500000*%
%TD*%
%TA.AperFunction,SMDPad,CuDef*%
%ADD11RoundRect,0.250000X0.450000X-0.350000X0.450000X0.350000X-0.450000X0.350000X-0.450000X-0.350000X0*%
%TD*%
%TA.AperFunction,SMDPad,CuDef*%
%ADD12RoundRect,0.250000X0.350000X0.450000X-0.350000X0.450000X-0.350000X-0.450000X0.350000X-0.450000X0*%
%TD*%
%TA.AperFunction,SMDPad,CuDef*%
%ADD13R,2.500000X2.500000*%
%TD*%
%TA.AperFunction,SMDPad,CuDef*%
%ADD14RoundRect,0.250000X-0.337500X-0.475000X0.337500X-0.475000X0.337500X0.475000X-0.337500X0.475000X0*%
%TD*%
%TA.AperFunction,SMDPad,CuDef*%
%ADD15RoundRect,0.250000X0.475000X-0.337500X0.475000X0.337500X-0.475000X0.337500X-0.475000X-0.337500X0*%
%TD*%
%TA.AperFunction,ComponentPad*%
%ADD16C,0.800000*%
%TD*%
%TA.AperFunction,ComponentPad*%
%ADD17C,6.400000*%
%TD*%
%TA.AperFunction,SMDPad,CuDef*%
%ADD18RoundRect,0.150000X-0.850000X-0.350000X0.850000X-0.350000X0.850000X0.350000X-0.850000X0.350000X0*%
%TD*%
%TA.AperFunction,SMDPad,CuDef*%
%ADD19R,1.000000X1.400000*%
%TD*%
%TA.AperFunction,SMDPad,CuDef*%
%ADD20RoundRect,0.250000X-0.450000X0.262500X-0.450000X-0.262500X0.450000X-0.262500X0.450000X0.262500X0*%
%TD*%
%TA.AperFunction,SMDPad,CuDef*%
%ADD21RoundRect,0.250000X-0.350000X-0.450000X0.350000X-0.450000X0.350000X0.450000X-0.350000X0.450000X0*%
%TD*%
%TA.AperFunction,ComponentPad*%
%ADD22R,2.300000X2.300000*%
%TD*%
%TA.AperFunction,ComponentPad*%
%ADD23C,2.300000*%
%TD*%
%TA.AperFunction,SMDPad,CuDef*%
%ADD24RoundRect,0.250000X-0.650000X0.800000X-0.650000X-0.800000X0.650000X-0.800000X0.650000X0.800000X0*%
%TD*%
%TA.AperFunction,SMDPad,CuDef*%
%ADD25RoundRect,0.250000X-0.450000X0.350000X-0.450000X-0.350000X0.450000X-0.350000X0.450000X0.350000X0*%
%TD*%
%TA.AperFunction,SMDPad,CuDef*%
%ADD26RoundRect,0.075000X-0.700000X-0.075000X0.700000X-0.075000X0.700000X0.075000X-0.700000X0.075000X0*%
%TD*%
%TA.AperFunction,SMDPad,CuDef*%
%ADD27RoundRect,0.075000X-0.075000X-0.700000X0.075000X-0.700000X0.075000X0.700000X-0.075000X0.700000X0*%
%TD*%
%TA.AperFunction,ComponentPad*%
%ADD28R,1.000000X1.000000*%
%TD*%
%TA.AperFunction,ComponentPad*%
%ADD29C,1.000000*%
%TD*%
%TA.AperFunction,SMDPad,CuDef*%
%ADD30RoundRect,0.043750X-0.221250X-0.131250X0.221250X-0.131250X0.221250X0.131250X-0.221250X0.131250X0*%
%TD*%
%TA.AperFunction,SMDPad,CuDef*%
%ADD31RoundRect,0.043750X-0.131250X-0.221250X0.131250X-0.221250X0.131250X0.221250X-0.131250X0.221250X0*%
%TD*%
%TA.AperFunction,SMDPad,CuDef*%
%ADD32FreePoly0,270.000000*%
%TD*%
%TA.AperFunction,SMDPad,CuDef*%
%ADD33FreePoly1,270.000000*%
%TD*%
%TA.AperFunction,SMDPad,CuDef*%
%ADD34RoundRect,0.250000X0.337500X0.475000X-0.337500X0.475000X-0.337500X-0.475000X0.337500X-0.475000X0*%
%TD*%
%TA.AperFunction,SMDPad,CuDef*%
%ADD35RoundRect,0.116250X-0.873750X-0.348750X0.873750X-0.348750X0.873750X0.348750X-0.873750X0.348750X0*%
%TD*%
%TA.AperFunction,SMDPad,CuDef*%
%ADD36RoundRect,0.247500X-0.742500X-1.367500X0.742500X-1.367500X0.742500X1.367500X-0.742500X1.367500X0*%
%TD*%
%TA.AperFunction,SMDPad,CuDef*%
%ADD37RoundRect,0.075000X0.910000X0.225000X-0.910000X0.225000X-0.910000X-0.225000X0.910000X-0.225000X0*%
%TD*%
%TA.AperFunction,SMDPad,CuDef*%
%ADD38R,0.900000X0.250000*%
%TD*%
%TA.AperFunction,SMDPad,CuDef*%
%ADD39R,0.250000X0.900000*%
%TD*%
%TA.AperFunction,SMDPad,CuDef*%
%ADD40RoundRect,0.090000X-0.660000X-0.360000X0.660000X-0.360000X0.660000X0.360000X-0.660000X0.360000X0*%
%TD*%
%TA.AperFunction,SMDPad,CuDef*%
%ADD41R,3.000000X1.400000*%
%TD*%
%TA.AperFunction,SMDPad,CuDef*%
%ADD42RoundRect,0.237500X0.287500X0.237500X-0.287500X0.237500X-0.287500X-0.237500X0.287500X-0.237500X0*%
%TD*%
%TA.AperFunction,ComponentPad*%
%ADD43R,1.508000X1.508000*%
%TD*%
%TA.AperFunction,ComponentPad*%
%ADD44C,1.508000*%
%TD*%
%TA.AperFunction,SMDPad,CuDef*%
%ADD45RoundRect,0.250000X-0.475000X0.337500X-0.475000X-0.337500X0.475000X-0.337500X0.475000X0.337500X0*%
%TD*%
%TA.AperFunction,SMDPad,CuDef*%
%ADD46RoundRect,0.250000X0.587500X1.625000X-0.587500X1.625000X-0.587500X-1.625000X0.587500X-1.625000X0*%
%TD*%
%TA.AperFunction,SMDPad,CuDef*%
%ADD47R,1.500000X0.800000*%
%TD*%
%TA.AperFunction,SMDPad,CuDef*%
%ADD48RoundRect,0.362500X0.637500X-0.362500X0.637500X0.362500X-0.637500X0.362500X-0.637500X-0.362500X0*%
%TD*%
%TA.AperFunction,ComponentPad*%
%ADD49C,2.050000*%
%TD*%
%TA.AperFunction,ComponentPad*%
%ADD50C,2.250000*%
%TD*%
%TA.AperFunction,SMDPad,CuDef*%
%ADD51RoundRect,0.015750X0.159250X0.174250X-0.159250X0.174250X-0.159250X-0.174250X0.159250X-0.174250X0*%
%TD*%
%TA.AperFunction,SMDPad,CuDef*%
%ADD52R,0.600000X1.150000*%
%TD*%
%TA.AperFunction,ComponentPad*%
%ADD53R,2.000000X2.000000*%
%TD*%
%TA.AperFunction,ComponentPad*%
%ADD54C,2.000000*%
%TD*%
%TA.AperFunction,SMDPad,CuDef*%
%ADD55R,1.450000X0.600000*%
%TD*%
%TA.AperFunction,SMDPad,CuDef*%
%ADD56R,1.450000X0.300000*%
%TD*%
%TA.AperFunction,HeatsinkPad*%
%ADD57O,2.100000X1.000000*%
%TD*%
%TA.AperFunction,HeatsinkPad*%
%ADD58O,1.600000X1.000000*%
%TD*%
%TA.AperFunction,SMDPad,CuDef*%
%ADD59RoundRect,0.112500X-0.112500X0.187500X-0.112500X-0.187500X0.112500X-0.187500X0.112500X0.187500X0*%
%TD*%
%TA.AperFunction,SMDPad,CuDef*%
%ADD60RoundRect,0.150000X-0.587500X-0.150000X0.587500X-0.150000X0.587500X0.150000X-0.587500X0.150000X0*%
%TD*%
%TA.AperFunction,SMDPad,CuDef*%
%ADD61RoundRect,0.150000X-0.825000X-0.150000X0.825000X-0.150000X0.825000X0.150000X-0.825000X0.150000X0*%
%TD*%
%TA.AperFunction,SMDPad,CuDef*%
%ADD62RoundRect,0.250000X-0.587500X-1.625000X0.587500X-1.625000X0.587500X1.625000X-0.587500X1.625000X0*%
%TD*%
%TA.AperFunction,SMDPad,CuDef*%
%ADD63RoundRect,0.125000X-0.250000X-0.125000X0.250000X-0.125000X0.250000X0.125000X-0.250000X0.125000X0*%
%TD*%
%TA.AperFunction,HeatsinkPad*%
%ADD64R,3.400000X4.300000*%
%TD*%
%TA.AperFunction,ViaPad*%
%ADD65C,0.600000*%
%TD*%
%TA.AperFunction,Conductor*%
%ADD66C,0.200000*%
%TD*%
%TA.AperFunction,Conductor*%
%ADD67C,0.500000*%
%TD*%
%TA.AperFunction,Conductor*%
%ADD68C,1.000000*%
%TD*%
%TA.AperFunction,Conductor*%
%ADD69C,1.500000*%
%TD*%
%TA.AperFunction,Conductor*%
%ADD70C,2.000000*%
%TD*%
%TA.AperFunction,Conductor*%
%ADD71C,0.150000*%
%TD*%
G04 APERTURE END LIST*
D10*
%TO.P,TP10,1,1_1*%
%TO.N,/Accelerometer/Accelerometer_SPICLK*%
X155900000Y-69950000D03*
%TD*%
D11*
%TO.P,R12,1*%
%TO.N,Net-(R11-Pad1)*%
X132000000Y-100250000D03*
%TO.P,R12,2*%
%TO.N,GND*%
X132000000Y-98250000D03*
%TD*%
D12*
%TO.P,R17,1*%
%TO.N,Net-(U8-~{WP}{slash}IO_{2})*%
X159700000Y-62200000D03*
%TO.P,R17,2*%
%TO.N,+3.3V*%
X157700000Y-62200000D03*
%TD*%
D13*
%TO.P,TP4,1,1_1*%
%TO.N,GND*%
X117600000Y-111600000D03*
%TD*%
D14*
%TO.P,C9,1*%
%TO.N,GND*%
X153062500Y-102081250D03*
%TO.P,C9,2*%
%TO.N,+3.3V*%
X155137500Y-102081250D03*
%TD*%
D15*
%TO.P,C15,1*%
%TO.N,/MCU/OSC IN*%
X154513500Y-86386500D03*
%TO.P,C15,2*%
%TO.N,GND*%
X154513500Y-84311500D03*
%TD*%
D16*
%TO.P,REF\u002A\u002A,1*%
%TO.N,N/C*%
X187600000Y-123000000D03*
X188302944Y-121302944D03*
X188302944Y-124697056D03*
X190000000Y-120600000D03*
D17*
X190000000Y-123000000D03*
D16*
X190000000Y-125400000D03*
X191697056Y-121302944D03*
X191697056Y-124697056D03*
X192400000Y-123000000D03*
%TD*%
D18*
%TO.P,SW2,1,1_1*%
%TO.N,+3.3V*%
X117100000Y-80700000D03*
%TO.P,SW2,2,2_2*%
%TO.N,unconnected-(SW2-Pad2)*%
X123100000Y-80700000D03*
%TO.P,SW2,3,3_3*%
%TO.N,unconnected-(SW2-Pad3)*%
X117100000Y-84400000D03*
%TO.P,SW2,4,4_4*%
%TO.N,/MCU/BOOT0*%
X123100000Y-84400000D03*
%TD*%
D11*
%TO.P,R23,1*%
%TO.N,Net-(Q1-G)*%
X148000000Y-100300000D03*
%TO.P,R23,2*%
%TO.N,/Aux/AuxIgnite*%
X148000000Y-98300000D03*
%TD*%
D19*
%TO.P,Q4,1,G_1*%
%TO.N,Net-(Q4-G)*%
X125950000Y-103700000D03*
%TO.P,Q4,2,S_2*%
%TO.N,GND*%
X124050000Y-103700000D03*
%TO.P,Q4,3,D_3*%
%TO.N,Net-(J10-Pin_2)*%
X125000000Y-105900000D03*
%TD*%
D14*
%TO.P,C28,1*%
%TO.N,GND*%
X150162500Y-68700000D03*
%TO.P,C28,2*%
%TO.N,+3.3V*%
X152237500Y-68700000D03*
%TD*%
D20*
%TO.P,R33,1*%
%TO.N,Net-(U1-PB2)*%
X165050000Y-101262500D03*
%TO.P,R33,2*%
%TO.N,GND*%
X165050000Y-103087500D03*
%TD*%
D11*
%TO.P,R20,1*%
%TO.N,GND*%
X177300000Y-123800000D03*
%TO.P,R20,2*%
%TO.N,Net-(Q3-B)*%
X177300000Y-121800000D03*
%TD*%
%TO.P,FB1,1*%
%TO.N,+3.3V*%
X155100000Y-100081250D03*
%TO.P,FB1,2*%
%TO.N,+3.3VA*%
X155100000Y-98081250D03*
%TD*%
D16*
%TO.P,REF\u002A\u002A,1*%
%TO.N,N/C*%
X117600000Y-53000000D03*
X118302944Y-51302944D03*
X118302944Y-54697056D03*
X120000000Y-50600000D03*
D17*
X120000000Y-53000000D03*
D16*
X120000000Y-55400000D03*
X121697056Y-51302944D03*
X121697056Y-54697056D03*
X122400000Y-53000000D03*
%TD*%
D10*
%TO.P,TP9,1,1_1*%
%TO.N,/Accelerometer/Accelerometer_MOSI*%
X165000000Y-69750000D03*
%TD*%
D21*
%TO.P,R19,1*%
%TO.N,/MCU/BuzzerControl*%
X173500000Y-121900000D03*
%TO.P,R19,2*%
%TO.N,Net-(Q3-B)*%
X175500000Y-121900000D03*
%TD*%
D22*
%TO.P,J4,1,Pin_1_1*%
%TO.N,/Aux/IgnitionPower*%
X136300000Y-113770000D03*
D23*
%TO.P,J4,2,Pin_2_2*%
%TO.N,Net-(J4-Pin_2)*%
X136300000Y-108270000D03*
%TD*%
D24*
%TO.P,Y1,1,1_1*%
%TO.N,/MCU/OSC IN*%
X149963500Y-85349000D03*
%TO.P,Y1,2,2_2*%
%TO.N,GND*%
X149963500Y-88249000D03*
%TO.P,Y1,3,3_3*%
%TO.N,/MCU/OSC OUT*%
X152263500Y-88249000D03*
%TO.P,Y1,4,4_4*%
%TO.N,GND*%
X152263500Y-85349000D03*
%TD*%
D11*
%TO.P,R7,1*%
%TO.N,Net-(R16-Pad1)*%
X121400000Y-100875000D03*
%TO.P,R7,2*%
%TO.N,GND*%
X121400000Y-98875000D03*
%TD*%
D25*
%TO.P,R22,1*%
%TO.N,Net-(R11-Pad1)*%
X129800000Y-99200000D03*
%TO.P,R22,2*%
%TO.N,/Drogue/DrougeADC*%
X129800000Y-101200000D03*
%TD*%
D14*
%TO.P,C12,1*%
%TO.N,+3.3V*%
X159862500Y-80600000D03*
%TO.P,C12,2*%
%TO.N,GND*%
X161937500Y-80600000D03*
%TD*%
D26*
%TO.P,U1,1,VBAT_1*%
%TO.N,+3.3V*%
X157925000Y-84750000D03*
%TO.P,U1,2,PC13_2*%
%TO.N,unconnected-(U1-PC13-Pad2)*%
X157925000Y-85250000D03*
%TO.P,U1,3,PC14_3*%
%TO.N,unconnected-(U1-PC14-Pad3)*%
X157925000Y-85750000D03*
%TO.P,U1,4,PC15_4*%
%TO.N,unconnected-(U1-PC15-Pad4)*%
X157925000Y-86250000D03*
%TO.P,U1,5,PH0_5*%
%TO.N,/MCU/OSC IN*%
X157925000Y-86750000D03*
%TO.P,U1,6,PH1_6*%
%TO.N,/MCU/OSC OUT*%
X157925000Y-87250000D03*
%TO.P,U1,7,NRST_7*%
%TO.N,/MCU/NRST*%
X157925000Y-87750000D03*
%TO.P,U1,8,PC0_8*%
%TO.N,/FlashMemory/ChipSelectFLash*%
X157925000Y-88250000D03*
%TO.P,U1,9,PC1_9*%
%TO.N,/FlashSd/ChipSelectSDCARD*%
X157925000Y-88750000D03*
%TO.P,U1,10,PC2_10*%
%TO.N,/LoRa/sxMIS0*%
X157925000Y-89250000D03*
%TO.P,U1,11,PC3_11*%
%TO.N,/Aux/AuxADC*%
X157925000Y-89750000D03*
%TO.P,U1,12,VSSA_12*%
%TO.N,GND*%
X157925000Y-90250000D03*
%TO.P,U1,13,VDDA_13*%
%TO.N,+3.3VA*%
X157925000Y-90750000D03*
%TO.P,U1,14,PA0_14*%
%TO.N,/GPS/GPS1_RX*%
X157925000Y-91250000D03*
%TO.P,U1,15,PA1_15*%
%TO.N,/MCU/PyroADC*%
X157925000Y-91750000D03*
%TO.P,U1,16,PA2_16*%
%TO.N,/MCU/RGB_DATA*%
X157925000Y-92250000D03*
D27*
%TO.P,U1,17,PA3_17*%
%TO.N,/Aux/AuxIgnite*%
X159850000Y-94175000D03*
%TO.P,U1,18,VSS_18*%
%TO.N,GND*%
X160350000Y-94175000D03*
%TO.P,U1,19,VDD_19*%
%TO.N,+3.3V*%
X160850000Y-94175000D03*
%TO.P,U1,20,PA4_20*%
%TO.N,/LoRa/sxReset*%
X161350000Y-94175000D03*
%TO.P,U1,21,PA5_21*%
%TO.N,/Accelerometer/Accelerometer_SPICLK*%
X161850000Y-94175000D03*
%TO.P,U1,22,PA6_22*%
%TO.N,/Accelerometer/Accelerometer_MIS0*%
X162350000Y-94175000D03*
%TO.P,U1,23,PA7_23*%
%TO.N,/Accelerometer/Accelerometer_MOSI*%
X162850000Y-94175000D03*
%TO.P,U1,24,PC4_24*%
%TO.N,/MCU/BuzzerControl*%
X163350000Y-94175000D03*
%TO.P,U1,25,PC5_25*%
%TO.N,/Drogue/DrougeADC*%
X163850000Y-94175000D03*
%TO.P,U1,26,PB0_26*%
%TO.N,/LoRa/sxNSS*%
X164350000Y-94175000D03*
%TO.P,U1,27,PB1_27*%
%TO.N,/LoRa/sxDIO1*%
X164850000Y-94175000D03*
%TO.P,U1,28,PB2_28*%
%TO.N,Net-(U1-PB2)*%
X165350000Y-94175000D03*
%TO.P,U1,29,PB10_29*%
%TO.N,/LoRa/sxSCK*%
X165850000Y-94175000D03*
%TO.P,U1,30,PB11_30*%
%TO.N,/Accelerometer/ChipslectAccelerometer*%
X166350000Y-94175000D03*
%TO.P,U1,31,VCAP_1_31*%
%TO.N,Net-(U1-VCAP_1)*%
X166850000Y-94175000D03*
%TO.P,U1,32,VDD_32*%
%TO.N,+3.3V*%
X167350000Y-94175000D03*
D26*
%TO.P,U1,33,PB12_33*%
%TO.N,/Can_transceiver/CAN_RX_2*%
X169275000Y-92250000D03*
%TO.P,U1,34,PB13_34*%
%TO.N,/Can_transceiver/CAN_TX_2*%
X169275000Y-91750000D03*
%TO.P,U1,35,PB14_35*%
%TO.N,/MCU/PyroIgnite*%
X169275000Y-91250000D03*
%TO.P,U1,36,PB15_36*%
%TO.N,/LoRa/sxMOSI*%
X169275000Y-90750000D03*
%TO.P,U1,37,PC6_37*%
%TO.N,/Drogue/DrougeIgnite*%
X169275000Y-90250000D03*
%TO.P,U1,38,PC7_38*%
%TO.N,/Barometer/Baraometer-ChipSelect*%
X169275000Y-89750000D03*
%TO.P,U1,39,PC8_39*%
%TO.N,unconnected-(U1-PC8-Pad39)*%
X169275000Y-89250000D03*
%TO.P,U1,40,PC9_40*%
%TO.N,/GPS/RESET2*%
X169275000Y-88750000D03*
%TO.P,U1,41,PA8_41*%
%TO.N,/GPS/RESET1*%
X169275000Y-88250000D03*
%TO.P,U1,42,PA9_42*%
%TO.N,+5V*%
X169275000Y-87750000D03*
%TO.P,U1,43,PA10_43*%
%TO.N,/IMU/ChipSelectIMU*%
X169275000Y-87250000D03*
%TO.P,U1,44,PA11_44*%
%TO.N,/MCU/D-*%
X169275000Y-86750000D03*
%TO.P,U1,45,PA12_45*%
%TO.N,/MCU/D+*%
X169275000Y-86250000D03*
%TO.P,U1,46,PA13_46*%
%TO.N,/MCU/SWDIO*%
X169275000Y-85750000D03*
%TO.P,U1,47,VCAP_2_47*%
%TO.N,Net-(U1-VCAP_2)*%
X169275000Y-85250000D03*
%TO.P,U1,48,VDD_48*%
%TO.N,+3.3V*%
X169275000Y-84750000D03*
D27*
%TO.P,U1,49,PA14_49*%
%TO.N,/MCU/SWCLK*%
X167350000Y-82825000D03*
%TO.P,U1,50,PA15_50*%
%TO.N,unconnected-(U1-PA15-Pad50)*%
X166850000Y-82825000D03*
%TO.P,U1,51,PC10_51*%
%TO.N,/FlashMemory/SPICLK*%
X166350000Y-82825000D03*
%TO.P,U1,52,PC11_52*%
%TO.N,/GPS/GPS1_TX*%
X165850000Y-82825000D03*
%TO.P,U1,53,PC12_53*%
%TO.N,/GPS/GPS2_RX*%
X165350000Y-82825000D03*
%TO.P,U1,54,PD2_54*%
%TO.N,/GPS/GPS2_TX*%
X164850000Y-82825000D03*
%TO.P,U1,55,PB3_55*%
%TO.N,/MCU/SWO*%
X164350000Y-82825000D03*
%TO.P,U1,56,PB4_56*%
%TO.N,/FlashMemory/SPI_MISO*%
X163850000Y-82825000D03*
%TO.P,U1,57,PB5_57*%
%TO.N,/FlashMemory/SPI_MOSI*%
X163350000Y-82825000D03*
%TO.P,U1,58,PB6_58*%
%TO.N,/LoRa/sxDIO0*%
X162850000Y-82825000D03*
%TO.P,U1,59,PB7_59*%
%TO.N,/LoRa/sxDIO2*%
X162350000Y-82825000D03*
%TO.P,U1,60,BOOT0_60*%
%TO.N,/MCU/BOOT0*%
X161850000Y-82825000D03*
%TO.P,U1,61,PB8_61*%
%TO.N,unconnected-(U1-PB8-Pad61)*%
X161350000Y-82825000D03*
%TO.P,U1,62,PB9_62*%
%TO.N,unconnected-(U1-PB9-Pad62)*%
X160850000Y-82825000D03*
%TO.P,U1,63,VSS_63*%
%TO.N,GND*%
X160350000Y-82825000D03*
%TO.P,U1,64,VDD_64*%
%TO.N,+3.3V*%
X159850000Y-82825000D03*
%TD*%
D25*
%TO.P,R10,1*%
%TO.N,Net-(Q2-G)*%
X138000000Y-103300000D03*
%TO.P,R10,2*%
%TO.N,GND*%
X138000000Y-105300000D03*
%TD*%
D11*
%TO.P,R13,1*%
%TO.N,Net-(J9-CC2)*%
X184350000Y-96500000D03*
%TO.P,R13,2*%
%TO.N,GND*%
X184350000Y-94500000D03*
%TD*%
%TO.P,R1,1*%
%TO.N,+3.3V*%
X127500000Y-93875000D03*
%TO.P,R1,2*%
%TO.N,/MCU/NRST*%
X127500000Y-91875000D03*
%TD*%
D10*
%TO.P,TP1,1,1_1*%
%TO.N,+BATT*%
X160600000Y-122900000D03*
%TD*%
D28*
%TO.P,J3,1,VTref_1*%
%TO.N,+3.3V*%
X120355000Y-61705000D03*
D29*
%TO.P,J3,2,SWDIO/TMS_2*%
%TO.N,/MCU/SWDIO*%
X121625000Y-61705000D03*
%TO.P,J3,3,GND_3*%
%TO.N,GND*%
X120355000Y-62975000D03*
%TO.P,J3,4,SWCLK/TCK_4*%
%TO.N,/MCU/SWCLK*%
X121625000Y-62975000D03*
%TO.P,J3,5,GND_5*%
%TO.N,GND*%
X120355000Y-64245000D03*
%TO.P,J3,6,SWO/TDO_6*%
%TO.N,/MCU/SWO*%
X121625000Y-64245000D03*
%TO.P,J3,7,KEY_7*%
%TO.N,unconnected-(J3-KEY-Pad7)*%
X120355000Y-65515000D03*
%TO.P,J3,8,NC/TDI_8*%
%TO.N,unconnected-(J3-NC{slash}TDI-Pad8)*%
X121625000Y-65515000D03*
%TO.P,J3,9,GNDDetect_9*%
%TO.N,GND*%
X120355000Y-66785000D03*
%TO.P,J3,10,~{RESET}_10*%
%TO.N,/MCU/NRST*%
X121625000Y-66785000D03*
%TD*%
D11*
%TO.P,R4,1*%
%TO.N,Net-(Q4-G)*%
X126600000Y-99450000D03*
%TO.P,R4,2*%
%TO.N,/MCU/PyroIgnite*%
X126600000Y-97450000D03*
%TD*%
D10*
%TO.P,TP5,1,1_1*%
%TO.N,Net-(Q4-G)*%
X128500000Y-104300000D03*
%TD*%
%TO.P,TP2,1,1_1*%
%TO.N,/Aux/IgnitionPower*%
X122400000Y-113900000D03*
%TD*%
D30*
%TO.P,U9,1,Vdd_IO_1*%
%TO.N,+3.3V*%
X150380000Y-71400000D03*
%TO.P,U9,2,NC_2*%
%TO.N,unconnected-(U9-NC-Pad2)*%
X150380000Y-71900000D03*
%TO.P,U9,3,NC_3*%
%TO.N,unconnected-(U9-NC-Pad3)*%
X150380000Y-72400000D03*
%TO.P,U9,4,SCL/SPC_4*%
%TO.N,/Accelerometer/Accelerometer_SPICLK*%
X150380000Y-72900000D03*
%TO.P,U9,5,GND_5*%
%TO.N,GND*%
X150380000Y-73400000D03*
D31*
%TO.P,U9,6,SDA/SDI/SDO_6*%
%TO.N,/Accelerometer/Accelerometer_MOSI*%
X151100000Y-73620000D03*
%TO.P,U9,7,SDO/SA0_7*%
%TO.N,/Accelerometer/Accelerometer_MIS0*%
X151600000Y-73620000D03*
%TO.P,U9,8,CS_8*%
%TO.N,/Accelerometer/ChipslectAccelerometer*%
X152100000Y-73620000D03*
D30*
%TO.P,U9,9,INT2_9*%
%TO.N,unconnected-(U9-INT2-Pad9)*%
X152820000Y-73400000D03*
%TO.P,U9,10,GND_10*%
%TO.N,unconnected-(U9-GND-Pad10)*%
X152820000Y-72900000D03*
%TO.P,U9,11,INT1_11*%
%TO.N,unconnected-(U9-INT1-Pad11)*%
X152820000Y-72400000D03*
%TO.P,U9,12,GND_12*%
%TO.N,GND*%
X152820000Y-71900000D03*
%TO.P,U9,13*%
%TO.N,N/C*%
X152820000Y-71400000D03*
D31*
%TO.P,U9,14,VDD_14*%
%TO.N,+3.3V*%
X152100000Y-71180000D03*
%TO.P,U9,15,VDD_15*%
X151600000Y-71180000D03*
%TO.P,U9,16*%
%TO.N,N/C*%
X151100000Y-71180000D03*
%TD*%
D32*
%TO.P,JP1,1,A_1*%
%TO.N,Net-(JP1-A)*%
X143200000Y-62175000D03*
D33*
%TO.P,JP1,2,B_2*%
%TO.N,/Can_transceiver/CANL*%
X143200000Y-63625000D03*
%TD*%
D21*
%TO.P,R36,1*%
%TO.N,+3.3V*%
X143900000Y-70200000D03*
%TO.P,R36,2*%
%TO.N,/IMU/ChipSelectIMU*%
X145900000Y-70200000D03*
%TD*%
%TO.P,R21,1*%
%TO.N,Net-(R21-Pad1)*%
X145100000Y-93400000D03*
%TO.P,R21,2*%
%TO.N,/Aux/AuxADC*%
X147100000Y-93400000D03*
%TD*%
D34*
%TO.P,C14,1*%
%TO.N,+3.3VA*%
X155237500Y-91981250D03*
%TO.P,C14,2*%
%TO.N,GND*%
X153162500Y-91981250D03*
%TD*%
D35*
%TO.P,U4,1,GND_1*%
%TO.N,GND*%
X154385000Y-114100000D03*
%TO.P,U4,2,Vout_2*%
%TO.N,+3.3V*%
X154385000Y-116400000D03*
%TO.P,U4,3,Vin_3*%
%TO.N,Net-(D2-K)*%
X154385000Y-118700000D03*
D36*
%TO.P,U4,4,Vout_4*%
%TO.N,+3.3V*%
X160415000Y-116400000D03*
%TD*%
D16*
%TO.P,REF\u002A\u002A,1*%
%TO.N,N/C*%
X187600000Y-53000000D03*
X188302944Y-51302944D03*
X188302944Y-54697056D03*
X190000000Y-50600000D03*
D17*
X190000000Y-53000000D03*
D16*
X190000000Y-55400000D03*
X191697056Y-51302944D03*
X191697056Y-54697056D03*
X192400000Y-53000000D03*
%TD*%
D37*
%TO.P,Q6,1,S_1*%
%TO.N,+BATT*%
X157615000Y-126805000D03*
%TO.P,Q6,2,Source_2*%
X157615000Y-125535000D03*
%TO.P,Q6,3,Source_3*%
X157615000Y-124265000D03*
%TO.P,Q6,4,G_4*%
%TO.N,Net-(Q6-G)*%
X157615000Y-122995000D03*
%TO.P,Q6,5,D_5*%
%TO.N,/Aux/IgnitionPower*%
X152675000Y-122995000D03*
%TO.P,Q6,6,Drain_6*%
X152675000Y-124265000D03*
%TO.P,Q6,7,Drain_7*%
X152675000Y-125535000D03*
%TO.P,Q6,8*%
%TO.N,N/C*%
X152675000Y-126805000D03*
%TD*%
D15*
%TO.P,C26,1*%
%TO.N,+3.3V*%
X168400000Y-59737500D03*
%TO.P,C26,2*%
%TO.N,GND*%
X168400000Y-57662500D03*
%TD*%
D11*
%TO.P,R26,1*%
%TO.N,Net-(R21-Pad1)*%
X141100000Y-100500000D03*
%TO.P,R26,2*%
%TO.N,GND*%
X141100000Y-98500000D03*
%TD*%
D21*
%TO.P,R18,1*%
%TO.N,Net-(U8-~{HOLD}{slash}~{RESET}{slash}IO_{3})*%
X168600000Y-61700000D03*
%TO.P,R18,2*%
%TO.N,+3.3V*%
X170600000Y-61700000D03*
%TD*%
D25*
%TO.P,R25,1*%
%TO.N,Net-(R21-Pad1)*%
X141000000Y-103000000D03*
%TO.P,R25,2*%
%TO.N,Net-(J2-Pin_2)*%
X141000000Y-105000000D03*
%TD*%
D38*
%TO.P,U7,1,SDO/SA0_1*%
%TO.N,/Accelerometer/Accelerometer_MIS0*%
X140950000Y-73850000D03*
%TO.P,U7,2,SDx_2*%
%TO.N,+3.3V*%
X140950000Y-74350000D03*
%TO.P,U7,3,SCx_3*%
X140950000Y-74850000D03*
%TO.P,U7,4,INT1_4*%
%TO.N,unconnected-(U7-INT1-Pad4)*%
X140950000Y-75350000D03*
D39*
%TO.P,U7,5,VDDIO_5*%
%TO.N,+3.3V*%
X141800000Y-75700000D03*
%TO.P,U7,6,GND_6*%
%TO.N,GND*%
X142300000Y-75700000D03*
%TO.P,U7,7,GND_7*%
X142800000Y-75700000D03*
D38*
%TO.P,U7,8,VDD_8*%
%TO.N,+3.3V*%
X143650000Y-75350000D03*
%TO.P,U7,9,INT2_9*%
%TO.N,unconnected-(U7-INT2-Pad9)*%
X143650000Y-74850000D03*
%TO.P,U7,10,NC_10*%
%TO.N,unconnected-(U7-NC-Pad10)*%
X143650000Y-74350000D03*
%TO.P,U7,11,NC_11*%
%TO.N,unconnected-(U7-NC-Pad11)*%
X143650000Y-73850000D03*
D39*
%TO.P,U7,12,CS_12*%
%TO.N,/IMU/ChipSelectIMU*%
X142800000Y-73500000D03*
%TO.P,U7,13,SCL_13*%
%TO.N,/Accelerometer/Accelerometer_SPICLK*%
X142300000Y-73500000D03*
%TO.P,U7,14,SDA_14*%
%TO.N,/Accelerometer/Accelerometer_MOSI*%
X141800000Y-73500000D03*
%TD*%
D40*
%TO.P,D1,1,VDD_1*%
%TO.N,+3.3V*%
X188050000Y-107050000D03*
%TO.P,D1,2,DOUT_2*%
%TO.N,unconnected-(D1-DOUT-Pad2)*%
X188050000Y-110350000D03*
%TO.P,D1,3,VSS_3*%
%TO.N,GND*%
X192950000Y-110350000D03*
%TO.P,D1,4,DIN_4*%
%TO.N,/MCU/RGB_DATA*%
X192950000Y-107050000D03*
%TD*%
D22*
%TO.P,J10,1,Pin_1_1*%
%TO.N,/Aux/IgnitionPower*%
X127800000Y-113870000D03*
D23*
%TO.P,J10,2,Pin_2_2*%
%TO.N,Net-(J10-Pin_2)*%
X127800000Y-108370000D03*
%TD*%
D41*
%TO.P,U5,1,GND_1*%
%TO.N,GND*%
X192675000Y-76025000D03*
%TO.P,U5,2,MISO_2*%
%TO.N,/LoRa/sxMIS0*%
X192675000Y-74025000D03*
%TO.P,U5,3,MOSI_3*%
%TO.N,/LoRa/sxMOSI*%
X192675000Y-72025000D03*
%TO.P,U5,4,SCK_4*%
%TO.N,/LoRa/sxSCK*%
X192675000Y-70025000D03*
%TO.P,U5,5,NSS_5*%
%TO.N,/LoRa/sxNSS*%
X192675000Y-68025000D03*
%TO.P,U5,6,RESET_6*%
%TO.N,/LoRa/sxReset*%
X192675000Y-66025000D03*
%TO.P,U5,7,DIO5_7*%
%TO.N,unconnected-(U5-DIO5-Pad7)*%
X192675000Y-64025000D03*
%TO.P,U5,8,GND_8*%
%TO.N,GND*%
X192675000Y-62025000D03*
%TO.P,U5,9,ANT_9*%
%TO.N,Net-(J7-In)*%
X177275000Y-62025000D03*
%TO.P,U5,10,GND_10*%
%TO.N,GND*%
X177275000Y-64025000D03*
%TO.P,U5,11,DIO3_11*%
%TO.N,unconnected-(U5-DIO3-Pad11)*%
X177275000Y-66025000D03*
%TO.P,U5,12,DIO4_12*%
%TO.N,unconnected-(U5-DIO4-Pad12)*%
X177275000Y-68025000D03*
%TO.P,U5,13,3.3V_13*%
%TO.N,+3.3V*%
X177275000Y-70025000D03*
%TO.P,U5,14,DIO0_14*%
%TO.N,/LoRa/sxDIO0*%
X177275000Y-72025000D03*
%TO.P,U5,15,DIO1_15*%
%TO.N,/LoRa/sxDIO1*%
X177275000Y-74025000D03*
%TO.P,U5,16,DIO2_16*%
%TO.N,/LoRa/sxDIO2*%
X177275000Y-76025000D03*
%TD*%
D14*
%TO.P,C11,1*%
%TO.N,+3.3V*%
X169862500Y-82300000D03*
%TO.P,C11,2*%
%TO.N,GND*%
X171937500Y-82300000D03*
%TD*%
D15*
%TO.P,C17,1*%
%TO.N,+3.3V*%
X144900000Y-60137500D03*
%TO.P,C17,2*%
%TO.N,GND*%
X144900000Y-58062500D03*
%TD*%
D21*
%TO.P,R31,1*%
%TO.N,+3.3V*%
X152400000Y-63700000D03*
%TO.P,R31,2*%
%TO.N,/FlashMemory/ChipSelectFLash*%
X154400000Y-63700000D03*
%TD*%
D42*
%TO.P,PowerLED1,1,K_1*%
%TO.N,GND*%
X192775000Y-114600000D03*
%TO.P,PowerLED1,2,A_2*%
%TO.N,Net-(PowerLED1-A)*%
X191025000Y-114600000D03*
%TD*%
D10*
%TO.P,TP6,1,1_1*%
%TO.N,Net-(Q1-G)*%
X145400000Y-101400000D03*
%TD*%
D12*
%TO.P,R2,1*%
%TO.N,GND*%
X125000000Y-86300000D03*
%TO.P,R2,2*%
%TO.N,/MCU/BOOT0*%
X123000000Y-86300000D03*
%TD*%
D25*
%TO.P,R11,1*%
%TO.N,Net-(R11-Pad1)*%
X131900000Y-103500000D03*
%TO.P,R11,2*%
%TO.N,Net-(J4-Pin_2)*%
X131900000Y-105500000D03*
%TD*%
D43*
%TO.P,J6,1,Pin_1_1*%
%TO.N,+3.3V*%
X172300000Y-51625000D03*
D44*
%TO.P,J6,2,Pin_2_2*%
%TO.N,GND*%
X169800000Y-51625000D03*
%TO.P,J6,3,Pin_3_3*%
%TO.N,/GPS/GPS2_TX*%
X167300000Y-51625000D03*
%TO.P,J6,4,Pin_4_4*%
%TO.N,/GPS/GPS2_RX*%
X164800000Y-51625000D03*
%TO.P,J6,5,Pin_5_5*%
%TO.N,/GPS/RESET2*%
X162300000Y-51625000D03*
%TD*%
D45*
%TO.P,C20,1*%
%TO.N,+3.3V*%
X116725000Y-61387500D03*
%TO.P,C20,2*%
%TO.N,GND*%
X116725000Y-63462500D03*
%TD*%
D25*
%TO.P,R6,1*%
%TO.N,Net-(R16-Pad1)*%
X121400000Y-103875000D03*
%TO.P,R6,2*%
%TO.N,Net-(J10-Pin_2)*%
X121400000Y-105875000D03*
%TD*%
D19*
%TO.P,Q2,1,G_1*%
%TO.N,Net-(Q2-G)*%
X136150000Y-103300000D03*
%TO.P,Q2,2,S_2*%
%TO.N,GND*%
X134250000Y-103300000D03*
%TO.P,Q2,3,D_3*%
%TO.N,Net-(J4-Pin_2)*%
X135200000Y-105500000D03*
%TD*%
D15*
%TO.P,C19,1*%
%TO.N,+3.3V*%
X151750000Y-116262500D03*
%TO.P,C19,2*%
%TO.N,GND*%
X151750000Y-114187500D03*
%TD*%
D45*
%TO.P,C8,1*%
%TO.N,+3.3V*%
X171000000Y-94762500D03*
%TO.P,C8,2*%
%TO.N,GND*%
X171000000Y-96837500D03*
%TD*%
D46*
%TO.P,D2,1,K_1*%
%TO.N,Net-(D2-K)*%
X154787500Y-107850000D03*
%TO.P,D2,2,A_2*%
%TO.N,/Aux/IgnitionPower*%
X150412500Y-107850000D03*
%TD*%
D47*
%TO.P,J8,1,DAT2_1*%
%TO.N,unconnected-(J8-DAT2-Pad1)*%
X185025000Y-88905000D03*
%TO.P,J8,2,DAT3/CD_2*%
%TO.N,/FlashSd/ChipSelectSDCARD*%
X185025000Y-87805000D03*
%TO.P,J8,3,CMD_3*%
%TO.N,/FlashMemory/SPI_MOSI*%
X185025000Y-86705000D03*
%TO.P,J8,4,VDD_4*%
%TO.N,+3.3V*%
X185025000Y-85605000D03*
%TO.P,J8,5,CLK_5*%
%TO.N,/FlashMemory/SPICLK*%
X185025000Y-84505000D03*
%TO.P,J8,6,VSS_6*%
%TO.N,GND*%
X185025000Y-83405000D03*
%TO.P,J8,7,DAT0_7*%
%TO.N,/FlashMemory/SPI_MISO*%
X185025000Y-82305000D03*
%TO.P,J8,8,DAT1_8*%
%TO.N,unconnected-(J8-DAT1-Pad8)*%
X185025000Y-81205000D03*
D48*
%TO.P,J8,9,SHIELD_9*%
%TO.N,GND*%
X182425000Y-92575000D03*
X190725000Y-92575000D03*
X182425000Y-78825000D03*
X190725000Y-78825000D03*
%TD*%
D15*
%TO.P,C7,1*%
%TO.N,+3.3V*%
X157900000Y-82137500D03*
%TO.P,C7,2*%
%TO.N,GND*%
X157900000Y-80062500D03*
%TD*%
D49*
%TO.P,J7,1,In_1*%
%TO.N,Net-(J7-In)*%
X179500000Y-56300000D03*
D50*
%TO.P,J7,2,Ext_2*%
%TO.N,GND*%
X176960000Y-53760000D03*
X176960000Y-58840000D03*
X182040000Y-53760000D03*
X182040000Y-58840000D03*
%TD*%
D45*
%TO.P,C3,1*%
%TO.N,Net-(U1-VCAP_1)*%
X166500000Y-96262500D03*
%TO.P,C3,2*%
%TO.N,GND*%
X166500000Y-98337500D03*
%TD*%
D25*
%TO.P,R14,1*%
%TO.N,Net-(J9-CC1)*%
X184250000Y-100300000D03*
%TO.P,R14,2*%
%TO.N,GND*%
X184250000Y-102300000D03*
%TD*%
%TO.P,R24,1*%
%TO.N,Net-(Q1-G)*%
X148000000Y-102000000D03*
%TO.P,R24,2*%
%TO.N,GND*%
X148000000Y-104000000D03*
%TD*%
D14*
%TO.P,C27,1*%
%TO.N,GND*%
X150162500Y-66600000D03*
%TO.P,C27,2*%
%TO.N,+3.3V*%
X152237500Y-66600000D03*
%TD*%
D43*
%TO.P,J5,1,Pin_1_1*%
%TO.N,+3.3V*%
X156037500Y-51625000D03*
D44*
%TO.P,J5,2,Pin_2_2*%
%TO.N,GND*%
X153537500Y-51625000D03*
%TO.P,J5,3,Pin_3_3*%
%TO.N,/GPS/GPS1_TX*%
X151037500Y-51625000D03*
%TO.P,J5,4,Pin_4_4*%
%TO.N,/GPS/GPS1_RX*%
X148537500Y-51625000D03*
%TO.P,J5,5,Pin_5_5*%
%TO.N,/GPS/RESET1*%
X146037500Y-51625000D03*
%TD*%
D51*
%TO.P,U6,1,VDDIO_1*%
%TO.N,+3.3V*%
X161815000Y-72285000D03*
%TO.P,U6,2,SCK_2*%
%TO.N,/Accelerometer/Accelerometer_SPICLK*%
X161815000Y-71785000D03*
%TO.P,U6,3,VSS_3*%
%TO.N,GND*%
X161550000Y-71270000D03*
%TO.P,U6,4,SDI_4*%
%TO.N,/Accelerometer/Accelerometer_MOSI*%
X161050000Y-71270000D03*
%TO.P,U6,5,SDO_5*%
%TO.N,/Accelerometer/Accelerometer_MIS0*%
X160550000Y-71270000D03*
%TO.P,U6,6,CS_6*%
%TO.N,/Barometer/Baraometer-ChipSelect*%
X160285000Y-71785000D03*
%TO.P,U6,7,INT_7*%
%TO.N,unconnected-(U6-INT-Pad7)*%
X160285000Y-72285000D03*
%TO.P,U6,8,VSS_8*%
%TO.N,GND*%
X160550000Y-72800000D03*
%TO.P,U6,9,VSS_9*%
X161050000Y-72800000D03*
%TO.P,U6,10,VDD_10*%
%TO.N,+3.3V*%
X161550000Y-72800000D03*
%TD*%
D12*
%TO.P,R16,1*%
%TO.N,Net-(R16-Pad1)*%
X118700000Y-101400000D03*
%TO.P,R16,2*%
%TO.N,/MCU/PyroADC*%
X116700000Y-101400000D03*
%TD*%
D11*
%TO.P,R27,1*%
%TO.N,/Barometer/Baraometer-ChipSelect*%
X158800000Y-69700000D03*
%TO.P,R27,2*%
%TO.N,+3.3V*%
X158800000Y-67700000D03*
%TD*%
%TO.P,R9,1*%
%TO.N,Net-(Q2-G)*%
X137900000Y-101500000D03*
%TO.P,R9,2*%
%TO.N,/Drogue/DrougeIgnite*%
X137900000Y-99500000D03*
%TD*%
D22*
%TO.P,U3,1,Pin_1_1*%
%TO.N,+BATT*%
X167300000Y-113870000D03*
D23*
%TO.P,U3,2,Pin_2_2*%
%TO.N,GND*%
X167300000Y-108370000D03*
%TD*%
D52*
%TO.P,D4,1,1_1*%
%TO.N,/usb_type_c/D+*%
X182200000Y-98000000D03*
%TO.P,D4,2,2_2*%
%TO.N,GND*%
X181250000Y-98000000D03*
%TO.P,D4,3,3_3*%
%TO.N,/usb_type_c/D-*%
X180300000Y-98000000D03*
%TO.P,D4,4,4_4*%
%TO.N,unconnected-(D4-Pad4)*%
X180300000Y-100500000D03*
%TO.P,D4,5,5_5*%
%TO.N,+5V*%
X181250000Y-100500000D03*
%TO.P,D4,6,6_6*%
%TO.N,unconnected-(D4-Pad6)*%
X182200000Y-100500000D03*
%TD*%
D53*
%TO.P,BZ1,1,+_1*%
%TO.N,+3.3V*%
X180500000Y-110000000D03*
D54*
%TO.P,BZ1,2,-_2*%
%TO.N,Net-(BZ1--)*%
X180500000Y-117600000D03*
%TD*%
D55*
%TO.P,J9,A1,GND_A1*%
%TO.N,GND*%
X186755000Y-102650000D03*
%TO.P,J9,A4,VBUS_A4*%
%TO.N,+5V*%
X186755000Y-101850000D03*
D56*
%TO.P,J9,A5,CC1_A5*%
%TO.N,Net-(J9-CC1)*%
X186755000Y-100650000D03*
%TO.P,J9,A6,D+_A6*%
%TO.N,/usb_type_c/D+*%
X186755000Y-99650000D03*
%TO.P,J9,A7,D-_A7*%
%TO.N,/usb_type_c/D-*%
X186755000Y-99150000D03*
%TO.P,J9,A8,SBU1_A8*%
%TO.N,unconnected-(J9-SBU1-PadA8)*%
X186755000Y-98150000D03*
D55*
%TO.P,J9,A9,VBUS_A9*%
%TO.N,+5V*%
X186755000Y-96950000D03*
%TO.P,J9,A12,GND_A12*%
%TO.N,GND*%
X186755000Y-96150000D03*
%TO.P,J9,B1,GND_B1*%
X186755000Y-96150000D03*
%TO.P,J9,B4,VBUS_B4*%
%TO.N,+5V*%
X186755000Y-96950000D03*
D56*
%TO.P,J9,B5,CC2_B5*%
%TO.N,Net-(J9-CC2)*%
X186755000Y-97650000D03*
%TO.P,J9,B6,D+_B6*%
%TO.N,/usb_type_c/D+*%
X186755000Y-98650000D03*
%TO.P,J9,B7,D-_B7*%
%TO.N,/usb_type_c/D-*%
X186755000Y-100150000D03*
%TO.P,J9,B8,SBU2_B8*%
%TO.N,unconnected-(J9-SBU2-PadB8)*%
X186755000Y-101150000D03*
D55*
%TO.P,J9,B9,VBUS_B9*%
%TO.N,+5V*%
X186755000Y-101850000D03*
%TO.P,J9,B12,GND_B12*%
%TO.N,GND*%
X186755000Y-102650000D03*
D57*
%TO.P,J9,S1,SHIELD_S1*%
X187670000Y-103720000D03*
D58*
X191850000Y-103720000D03*
D57*
X187670000Y-95080000D03*
D58*
X191850000Y-95080000D03*
%TD*%
D14*
%TO.P,C18,1*%
%TO.N,Net-(D2-K)*%
X156462500Y-111250000D03*
%TO.P,C18,2*%
%TO.N,GND*%
X158537500Y-111250000D03*
%TD*%
D18*
%TO.P,SW1,1,1_1*%
%TO.N,unconnected-(SW1-Pad1)*%
X117100000Y-89650000D03*
%TO.P,SW1,2,2_2*%
%TO.N,Net-(C2-Pad2)*%
X123100000Y-89650000D03*
%TO.P,SW1,3,3_3*%
%TO.N,GND*%
X117100000Y-93350000D03*
%TO.P,SW1,4,4_4*%
%TO.N,unconnected-(SW1-Pad4)*%
X123100000Y-93350000D03*
%TD*%
D22*
%TO.P,CAN_IN1,1,Pin_1_1*%
%TO.N,/Can_transceiver/CANH*%
X137900000Y-62100000D03*
D23*
%TO.P,CAN_IN1,2,Pin_2_2*%
%TO.N,/Can_transceiver/CANL*%
X137900000Y-67600000D03*
%TD*%
D12*
%TO.P,R30,1*%
%TO.N,Net-(Q6-G)*%
X156800000Y-121200000D03*
%TO.P,R30,2*%
%TO.N,GND*%
X154800000Y-121200000D03*
%TD*%
D15*
%TO.P,C2,1*%
%TO.N,/MCU/NRST*%
X125200000Y-91812500D03*
%TO.P,C2,2*%
%TO.N,Net-(C2-Pad2)*%
X125200000Y-89737500D03*
%TD*%
D10*
%TO.P,TP8,1,1_1*%
%TO.N,/Accelerometer/Accelerometer_MIS0*%
X161450000Y-67250000D03*
%TD*%
D25*
%TO.P,R3,1*%
%TO.N,Net-(PowerLED1-A)*%
X188500000Y-114800000D03*
%TO.P,R3,2*%
%TO.N,+3.3V*%
X188500000Y-116800000D03*
%TD*%
D10*
%TO.P,TP3,1,1_1*%
%TO.N,+3.3V*%
X117300000Y-116300000D03*
%TD*%
D12*
%TO.P,R8,1*%
%TO.N,/Can_transceiver/CANH*%
X145000000Y-56000000D03*
%TO.P,R8,2*%
%TO.N,Net-(JP1-A)*%
X143000000Y-56000000D03*
%TD*%
D21*
%TO.P,R32,1*%
%TO.N,+3.3V*%
X149000000Y-77500000D03*
%TO.P,R32,2*%
%TO.N,/Accelerometer/ChipslectAccelerometer*%
X151000000Y-77500000D03*
%TD*%
D45*
%TO.P,C1,1*%
%TO.N,+3.3V*%
X173800000Y-70362500D03*
%TO.P,C1,2*%
%TO.N,GND*%
X173800000Y-72437500D03*
%TD*%
D34*
%TO.P,C13,1*%
%TO.N,+3.3VA*%
X155237500Y-94081250D03*
%TO.P,C13,2*%
%TO.N,GND*%
X153162500Y-94081250D03*
%TD*%
D16*
%TO.P,REF\u002A\u002A,1*%
%TO.N,N/C*%
X117600000Y-123000000D03*
X118302944Y-121302944D03*
X118302944Y-124697056D03*
X120000000Y-120600000D03*
D17*
X120000000Y-123000000D03*
D16*
X120000000Y-125400000D03*
X121697056Y-121302944D03*
X121697056Y-124697056D03*
X122400000Y-123000000D03*
%TD*%
D59*
%TO.P,D6,1,K_1*%
%TO.N,+3.3V*%
X173300000Y-113150000D03*
%TO.P,D6,2,A_2*%
%TO.N,Net-(BZ1--)*%
X173300000Y-115250000D03*
%TD*%
D14*
%TO.P,C22,1*%
%TO.N,+3.3V*%
X163745000Y-72435000D03*
%TO.P,C22,2*%
%TO.N,GND*%
X165820000Y-72435000D03*
%TD*%
%TO.P,C10,1*%
%TO.N,GND*%
X153162500Y-96181250D03*
%TO.P,C10,2*%
%TO.N,+3.3VA*%
X155237500Y-96181250D03*
%TD*%
D34*
%TO.P,C24,1*%
%TO.N,+3.3V*%
X141437500Y-77400000D03*
%TO.P,C24,2*%
%TO.N,GND*%
X139362500Y-77400000D03*
%TD*%
D45*
%TO.P,C16,1*%
%TO.N,/MCU/OSC OUT*%
X147682250Y-86762500D03*
%TO.P,C16,2*%
%TO.N,GND*%
X147682250Y-88837500D03*
%TD*%
%TO.P,C25,1*%
%TO.N,+3.3V*%
X145600000Y-75962500D03*
%TO.P,C25,2*%
%TO.N,GND*%
X145600000Y-78037500D03*
%TD*%
D22*
%TO.P,J2,1,Pin_1_1*%
%TO.N,/Aux/IgnitionPower*%
X144700000Y-113770000D03*
D23*
%TO.P,J2,2,Pin_2_2*%
%TO.N,Net-(J2-Pin_2)*%
X144700000Y-108270000D03*
%TD*%
D34*
%TO.P,C21,1*%
%TO.N,+3.3V*%
X161720000Y-74635000D03*
%TO.P,C21,2*%
%TO.N,GND*%
X159645000Y-74635000D03*
%TD*%
D19*
%TO.P,Q1,1,G_1*%
%TO.N,Net-(Q1-G)*%
X145750000Y-103500000D03*
%TO.P,Q1,2,S_2*%
%TO.N,GND*%
X143850000Y-103500000D03*
%TO.P,Q1,3,D_3*%
%TO.N,Net-(J2-Pin_2)*%
X144800000Y-105700000D03*
%TD*%
D11*
%TO.P,R28,1*%
%TO.N,/usb_type_c/D+*%
X178500000Y-93500000D03*
%TO.P,R28,2*%
%TO.N,/MCU/D+*%
X178500000Y-91500000D03*
%TD*%
D14*
%TO.P,C4,1*%
%TO.N,Net-(U1-VCAP_2)*%
X171312500Y-84500000D03*
%TO.P,C4,2*%
%TO.N,GND*%
X173387500Y-84500000D03*
%TD*%
D45*
%TO.P,C5,1*%
%TO.N,+3.3V*%
X168900000Y-94762500D03*
%TO.P,C5,2*%
%TO.N,GND*%
X168900000Y-96837500D03*
%TD*%
D21*
%TO.P,R15,1*%
%TO.N,+3.3V*%
X176700000Y-87800000D03*
%TO.P,R15,2*%
%TO.N,/FlashSd/ChipSelectSDCARD*%
X178700000Y-87800000D03*
%TD*%
D11*
%TO.P,R29,1*%
%TO.N,/usb_type_c/D-*%
X178000000Y-99000000D03*
%TO.P,R29,2*%
%TO.N,/MCU/D-*%
X178000000Y-97000000D03*
%TD*%
D60*
%TO.P,Q3,1,B_1*%
%TO.N,Net-(Q3-B)*%
X180162500Y-121650000D03*
%TO.P,Q3,2,E_2*%
%TO.N,GND*%
X180162500Y-123550000D03*
%TO.P,Q3,3,C_3*%
%TO.N,Net-(BZ1--)*%
X182037500Y-122600000D03*
%TD*%
D34*
%TO.P,C6,1*%
%TO.N,+3.3V*%
X160737500Y-96300000D03*
%TO.P,C6,2*%
%TO.N,GND*%
X158662500Y-96300000D03*
%TD*%
D10*
%TO.P,TP7,1,1_1*%
%TO.N,Net-(Q2-G)*%
X135400000Y-100400000D03*
%TD*%
D61*
%TO.P,U2,1,D_1*%
%TO.N,/Can_transceiver/CAN_TX_2*%
X147125000Y-57295000D03*
%TO.P,U2,2,GND_2*%
%TO.N,GND*%
X147125000Y-58565000D03*
%TO.P,U2,3,VCC_3*%
%TO.N,+3.3V*%
X147125000Y-59835000D03*
%TO.P,U2,4,R_4*%
%TO.N,/Can_transceiver/CAN_RX_2*%
X147125000Y-61105000D03*
%TO.P,U2,5,Vref_5*%
%TO.N,unconnected-(U2-Vref-Pad5)*%
X152075000Y-61105000D03*
%TO.P,U2,6,CANL_6*%
%TO.N,/Can_transceiver/CANL*%
X152075000Y-59835000D03*
%TO.P,U2,7,CANH_7*%
%TO.N,/Can_transceiver/CANH*%
X152075000Y-58565000D03*
%TO.P,U2,8,Rs_8*%
%TO.N,GND*%
X152075000Y-57295000D03*
%TD*%
D22*
%TO.P,CAN_OUT1,1,Pin_1_1*%
%TO.N,/Can_transceiver/CANH*%
X129400000Y-62100000D03*
D23*
%TO.P,CAN_OUT1,2,Pin_2_2*%
%TO.N,/Can_transceiver/CANL*%
X129400000Y-67600000D03*
%TD*%
D62*
%TO.P,D3,1,K_1*%
%TO.N,Net-(D2-K)*%
X157712500Y-107775000D03*
%TO.P,D3,2,A_2*%
%TO.N,+5V*%
X162087500Y-107775000D03*
%TD*%
D21*
%TO.P,R5,1*%
%TO.N,Net-(Q4-G)*%
X125950000Y-101950000D03*
%TO.P,R5,2*%
%TO.N,GND*%
X127950000Y-101950000D03*
%TD*%
D63*
%TO.P,U8,1,~{CS}_1*%
%TO.N,/FlashMemory/ChipSelectFLash*%
X161287500Y-59795000D03*
%TO.P,U8,2,DO/IO_{1}_2*%
%TO.N,/FlashMemory/SPI_MISO*%
X161287500Y-61065000D03*
%TO.P,U8,3,~{WP}/IO_{2}_3*%
%TO.N,Net-(U8-~{WP}{slash}IO_{2})*%
X161287500Y-62335000D03*
%TO.P,U8,4,GND_4*%
%TO.N,GND*%
X161287500Y-63605000D03*
%TO.P,U8,5,DI/IO_{0}_5*%
%TO.N,/FlashMemory/SPI_MOSI*%
X166687500Y-63605000D03*
%TO.P,U8,6,CLK_6*%
%TO.N,/FlashMemory/SPICLK*%
X166687500Y-62335000D03*
%TO.P,U8,7,~{HOLD}/~{RESET}/IO_{3}_7*%
%TO.N,Net-(U8-~{HOLD}{slash}~{RESET}{slash}IO_{3})*%
X166687500Y-61065000D03*
%TO.P,U8,8,VCC_8*%
%TO.N,+3.3V*%
X166687500Y-59795000D03*
D64*
%TO.P,U8,9,EP_9*%
%TO.N,unconnected-(U8-EP-Pad9)*%
X163987500Y-61700000D03*
%TD*%
D65*
%TO.N,/Accelerometer/Accelerometer_SPICLK*%
X142000000Y-71800000D03*
X148300000Y-71800000D03*
X162840380Y-70959620D03*
X161800000Y-92200000D03*
X155900000Y-71800000D03*
%TO.N,GND*%
X146300000Y-85400000D03*
X155300000Y-83000000D03*
X146300000Y-89800000D03*
X150100000Y-89900000D03*
X139200000Y-76100000D03*
X150500000Y-83200000D03*
X151850000Y-93150000D03*
X184400000Y-78200000D03*
X158134620Y-79025000D03*
X169593815Y-58106185D03*
X176100000Y-83350000D03*
X153800000Y-57400000D03*
X160850000Y-111225000D03*
X124100000Y-102300000D03*
X160700000Y-64854315D03*
X149400000Y-83200000D03*
X159850000Y-90200000D03*
X143650000Y-78100000D03*
X152600000Y-121200000D03*
X156100000Y-85600000D03*
X162350000Y-79200000D03*
X184330000Y-93350000D03*
X158200000Y-120950000D03*
X156063500Y-83900000D03*
X146300000Y-87500000D03*
X170000000Y-97900000D03*
X148700000Y-67600000D03*
X126500000Y-86300000D03*
X156063500Y-83024791D03*
X155000000Y-88900000D03*
X159245341Y-72935814D03*
X152900000Y-89900000D03*
X192900000Y-112100000D03*
X133200000Y-101800000D03*
X186020000Y-104650000D03*
X153800000Y-89900000D03*
X142600000Y-103500000D03*
X181100000Y-96900000D03*
X149060000Y-73460000D03*
X148300000Y-85300000D03*
X149300000Y-89900000D03*
X179600000Y-125000000D03*
X174784620Y-68965380D03*
X167900000Y-98300000D03*
X153900000Y-88900000D03*
X150725000Y-119750000D03*
X152800000Y-83200000D03*
X153700000Y-83000000D03*
X151750000Y-95181250D03*
X173800000Y-74000000D03*
X191850000Y-105075000D03*
X116725000Y-64800000D03*
X192700000Y-59900000D03*
X182400000Y-94000000D03*
X189850000Y-95150000D03*
X190700000Y-77600000D03*
X183400000Y-83500000D03*
X151100000Y-89900000D03*
X182900000Y-102600000D03*
X151750000Y-112925000D03*
X161792893Y-70407107D03*
X154600000Y-83000000D03*
X119800000Y-111600000D03*
X153635000Y-71250000D03*
X116900000Y-94575000D03*
X128000000Y-100400000D03*
X148400000Y-89900000D03*
X192600000Y-77600000D03*
X160675000Y-119300000D03*
X151600000Y-83200000D03*
X152100000Y-89900000D03*
X147300000Y-85400000D03*
X152450000Y-117525000D03*
X148300000Y-84300000D03*
X156063500Y-84800000D03*
X153000000Y-103600000D03*
X148300000Y-83300000D03*
X147400000Y-89900000D03*
X192800000Y-113300000D03*
X148900000Y-58900000D03*
X156000000Y-88900000D03*
X139300000Y-105300000D03*
X143000000Y-97900000D03*
X158900000Y-98000000D03*
X163450000Y-103500000D03*
X132000000Y-97133620D03*
X121400000Y-97600000D03*
X142800000Y-76900000D03*
X148000000Y-105100000D03*
X148380000Y-122740000D03*
X187675000Y-105175000D03*
X159060000Y-122080000D03*
X150310000Y-126510000D03*
X190800000Y-93800000D03*
X146300000Y-88600000D03*
X146300000Y-86500000D03*
X168900000Y-72500000D03*
%TO.N,+3.3V*%
X161700000Y-76100000D03*
X186200000Y-107100000D03*
X180500000Y-106500000D03*
X151000000Y-63600000D03*
X158100000Y-66400000D03*
X159350000Y-79150000D03*
X152300000Y-65200000D03*
X170640000Y-80730000D03*
X147000000Y-76000000D03*
X175950000Y-89500000D03*
X119200000Y-116300000D03*
X141500000Y-78850000D03*
X156534781Y-62547279D03*
X147710000Y-77500000D03*
X117100000Y-79100000D03*
X139900000Y-74800000D03*
X183400000Y-85651000D03*
X170600000Y-60100000D03*
X142600000Y-70200000D03*
X155175000Y-81000000D03*
X127500000Y-94800000D03*
X172400000Y-96400000D03*
X162150000Y-112500000D03*
X155137500Y-103543750D03*
X163800000Y-74100000D03*
X152125000Y-70270000D03*
X144900000Y-61600000D03*
X161400000Y-97900000D03*
X173700000Y-68750000D03*
X188500000Y-118275000D03*
%TO.N,/MCU/BOOT0*%
X161800000Y-84100000D03*
X161700000Y-77500000D03*
X131500000Y-84300000D03*
X131496752Y-80053248D03*
%TO.N,/Aux/AuxIgnite*%
X146400000Y-98200000D03*
X157500000Y-98100000D03*
%TO.N,/Accelerometer/Accelerometer_MOSI*%
X161117893Y-69732107D03*
X162850001Y-91268292D03*
X150320000Y-74620000D03*
X139122921Y-75144459D03*
X141700000Y-72500000D03*
%TO.N,/MCU/BuzzerControl*%
X172000000Y-111900000D03*
X162375000Y-100625000D03*
%TO.N,/Drogue/DrougeADC*%
X163300000Y-102000000D03*
X129900000Y-102400000D03*
%TO.N,/MCU/NRST*%
X130200000Y-82200000D03*
X130100000Y-92000000D03*
X138800000Y-82100000D03*
X159400000Y-84500000D03*
%TO.N,/FlashMemory/ChipSelectFLash*%
X159450000Y-88168932D03*
X153325000Y-80000000D03*
%TO.N,/FlashSd/ChipSelectSDCARD*%
X174850000Y-86500000D03*
X159900000Y-88800000D03*
%TO.N,/LoRa/sxMIS0*%
X168800000Y-78550000D03*
X162600000Y-87050000D03*
%TO.N,/GPS/GPS1_RX*%
X162500000Y-88100000D03*
%TO.N,/MCU/PyroADC*%
X116900000Y-99900000D03*
X156500000Y-101500000D03*
%TO.N,/MCU/RGB_DATA*%
X157500000Y-99700000D03*
X192900000Y-105700000D03*
%TO.N,/LoRa/sxReset*%
X161200000Y-93000000D03*
X190400000Y-66025000D03*
%TO.N,/Accelerometer/Accelerometer_MIS0*%
X151190000Y-75290000D03*
X140000000Y-73900000D03*
X161949517Y-91500000D03*
X160350000Y-70200000D03*
%TO.N,/LoRa/sxNSS*%
X163650000Y-92525000D03*
X189700000Y-68025000D03*
%TO.N,/LoRa/sxDIO1*%
X175124265Y-74324265D03*
X163700000Y-91200000D03*
%TO.N,/LoRa/sxSCK*%
X189600000Y-70025000D03*
X165000000Y-91750000D03*
%TO.N,/Accelerometer/ChipslectAccelerometer*%
X152700000Y-77500000D03*
X166350000Y-90050000D03*
%TO.N,/Can_transceiver/CAN_RX_2*%
X172350000Y-94050000D03*
X146700000Y-62200000D03*
%TO.N,/Can_transceiver/CAN_TX_2*%
X173550000Y-94000000D03*
X146700000Y-55800000D03*
%TO.N,/LoRa/sxMOSI*%
X188700000Y-72100000D03*
X167950000Y-90400000D03*
%TO.N,/Barometer/Baraometer-ChipSelect*%
X164000000Y-88850000D03*
X159166250Y-71718750D03*
%TO.N,/GPS/RESET2*%
X171151204Y-88879556D03*
%TO.N,/GPS/RESET1*%
X171087338Y-88031956D03*
%TO.N,/IMU/ChipSelectIMU*%
X165350000Y-87300000D03*
X148870000Y-76290000D03*
%TO.N,/MCU/SWDIO*%
X140825000Y-82225000D03*
X158100000Y-93100000D03*
%TO.N,/MCU/SWCLK*%
X165350000Y-78250000D03*
X124075000Y-64150000D03*
X168426388Y-81354896D03*
%TO.N,/FlashMemory/SPICLK*%
X167550000Y-79050000D03*
X168150000Y-63600000D03*
%TO.N,/GPS/GPS1_TX*%
X172550000Y-80000000D03*
%TO.N,/GPS/GPS2_TX*%
X174400000Y-54900000D03*
%TO.N,/MCU/SWO*%
X123400000Y-65150000D03*
%TO.N,/FlashMemory/SPI_MISO*%
X183000000Y-82500000D03*
X163850000Y-81200000D03*
X167341581Y-81260820D03*
X159900000Y-60500000D03*
X180605000Y-86705000D03*
%TO.N,/FlashMemory/SPI_MOSI*%
X182500000Y-87000000D03*
X168600000Y-75200000D03*
X163153650Y-80712557D03*
X164450000Y-77100000D03*
X171300000Y-78450000D03*
X166850000Y-65000000D03*
X181750000Y-83250000D03*
%TO.N,/LoRa/sxDIO0*%
X174360000Y-75500000D03*
X167190000Y-85060000D03*
%TO.N,/LoRa/sxDIO2*%
X174120000Y-76560000D03*
X168020000Y-85360000D03*
%TO.N,Net-(R21-Pad1)*%
X144200000Y-98350000D03*
X145100000Y-95500000D03*
%TD*%
%TO.N,/Accelerometer/Accelerometer_SPICLK*%
D66*
X142300000Y-72100000D02*
X142300000Y-73500000D01*
X161800000Y-92200000D02*
X161800000Y-94125000D01*
X155900000Y-71800000D02*
X155900000Y-69950000D01*
X142000000Y-71800000D02*
X142300000Y-72100000D01*
X149400000Y-72900000D02*
X148300000Y-71800000D01*
X161815000Y-71785000D02*
X162015000Y-71785000D01*
X150380000Y-72900000D02*
X149400000Y-72900000D01*
X162015000Y-71785000D02*
X162840380Y-70959620D01*
D67*
X155950000Y-70000000D02*
X155900000Y-69950000D01*
%TO.N,Net-(R11-Pad1)*%
X131900000Y-101900000D02*
X131900000Y-100350000D01*
X131900000Y-102100000D02*
X131900000Y-101900000D01*
X131900000Y-103500000D02*
X131900000Y-102100000D01*
X131900000Y-100350000D02*
X132000000Y-100250000D01*
D66*
X130900000Y-101700000D02*
X131700000Y-101700000D01*
X130900000Y-100300000D02*
X130900000Y-101700000D01*
X129800000Y-99200000D02*
X130900000Y-100300000D01*
X131700000Y-101700000D02*
X131900000Y-101900000D01*
D67*
X129900000Y-99472420D02*
X129900000Y-99200000D01*
%TO.N,GND*%
D66*
X153763500Y-89049000D02*
X153763500Y-89849000D01*
D67*
X184250000Y-102300000D02*
X183200000Y-102300000D01*
D66*
X186705000Y-102700000D02*
X186020000Y-103385000D01*
X156063500Y-85563500D02*
X156100000Y-85600000D01*
X190725000Y-78825000D02*
X190725000Y-77625000D01*
X151750000Y-95181250D02*
X152062500Y-95181250D01*
D67*
X116925000Y-93350000D02*
X116925000Y-94550000D01*
D66*
X150380000Y-73400000D02*
X149120000Y-73400000D01*
X146263500Y-89849000D02*
X153763500Y-89849000D01*
X159645000Y-74635000D02*
X159645000Y-73335473D01*
D68*
X134250000Y-103300000D02*
X134250000Y-102850000D01*
D67*
X174784620Y-64465380D02*
X174784620Y-68965380D01*
D66*
X185025000Y-83405000D02*
X183495000Y-83405000D01*
X142800000Y-75700000D02*
X142800000Y-76500000D01*
D67*
X192675000Y-59925000D02*
X192700000Y-59900000D01*
D66*
X192775000Y-114600000D02*
X192775000Y-113325000D01*
X153635000Y-71516118D02*
X153635000Y-71250000D01*
X156063500Y-83024791D02*
X156063500Y-85563500D01*
D67*
X183200000Y-102300000D02*
X182900000Y-102600000D01*
D66*
X189780000Y-95080000D02*
X189850000Y-95150000D01*
X147125000Y-58565000D02*
X148565000Y-58565000D01*
X146263500Y-85349000D02*
X146263500Y-89849000D01*
D68*
X124050000Y-102350000D02*
X124100000Y-102300000D01*
D67*
X127950000Y-100450000D02*
X128000000Y-100400000D01*
D66*
X149700000Y-66600000D02*
X148700000Y-67600000D01*
X192950000Y-110350000D02*
X192950000Y-112050000D01*
X153050000Y-94081250D02*
X152118750Y-93150000D01*
X170000000Y-97837500D02*
X171000000Y-96837500D01*
X173387500Y-84500000D02*
X174950000Y-84500000D01*
X165050000Y-103087500D02*
X163862500Y-103087500D01*
X161937500Y-79612500D02*
X162350000Y-79200000D01*
X183775000Y-78825000D02*
X184400000Y-78200000D01*
D68*
X117600000Y-111600000D02*
X119800000Y-111600000D01*
D67*
X158537500Y-111250000D02*
X160825000Y-111250000D01*
D66*
X153963500Y-88849000D02*
X153763500Y-89049000D01*
X192950000Y-112050000D02*
X192900000Y-112100000D01*
X148565000Y-58565000D02*
X148900000Y-58900000D01*
D67*
X177275000Y-64025000D02*
X175225000Y-64025000D01*
X154297500Y-114187500D02*
X154385000Y-114100000D01*
X177300000Y-123800000D02*
X178400000Y-123800000D01*
D66*
X192675000Y-76025000D02*
X192675000Y-77525000D01*
D67*
X153062500Y-103537500D02*
X153000000Y-103600000D01*
D66*
X147682250Y-88837500D02*
X149375000Y-88837500D01*
D67*
X181250000Y-98000000D02*
X181250000Y-97050000D01*
D66*
X168937500Y-96837500D02*
X170000000Y-97900000D01*
X148263500Y-83251000D02*
X148263500Y-85349000D01*
X189920000Y-95080000D02*
X189850000Y-95150000D01*
X152820000Y-71900000D02*
X153251118Y-71900000D01*
D67*
X143712500Y-78037500D02*
X143650000Y-78100000D01*
D66*
X152863500Y-83249000D02*
X152600000Y-83249000D01*
X121400000Y-98875000D02*
X121400000Y-97600000D01*
X186705000Y-96200000D02*
X186050000Y-96200000D01*
X152750000Y-96181250D02*
X151750000Y-95181250D01*
X152600000Y-83249000D02*
X152551000Y-83200000D01*
X190725000Y-93725000D02*
X190800000Y-93800000D01*
X152075000Y-57295000D02*
X153695000Y-57295000D01*
X157900000Y-79259620D02*
X158134620Y-79025000D01*
D67*
X160825000Y-111250000D02*
X160850000Y-111225000D01*
D66*
X153163500Y-82949000D02*
X152863500Y-83249000D01*
X161864130Y-70478344D02*
X161792893Y-70407107D01*
X139362500Y-76262500D02*
X139200000Y-76100000D01*
D67*
X184350000Y-93370000D02*
X184330000Y-93350000D01*
D66*
X187670000Y-103720000D02*
X187670000Y-105170000D01*
X142800000Y-76500000D02*
X142800000Y-76900000D01*
X171937500Y-82300000D02*
X175050000Y-82300000D01*
X157925000Y-90250000D02*
X159800000Y-90250000D01*
X175050000Y-82300000D02*
X176100000Y-83350000D01*
X144900000Y-58062500D02*
X146622500Y-58062500D01*
X190725000Y-77625000D02*
X190700000Y-77600000D01*
X186050000Y-96200000D02*
X184350000Y-94500000D01*
D67*
X168835000Y-72435000D02*
X168900000Y-72500000D01*
D68*
X143850000Y-103500000D02*
X142600000Y-103500000D01*
D66*
X170000000Y-97900000D02*
X170000000Y-97837500D01*
X152551000Y-83200000D02*
X148314500Y-83200000D01*
X155987709Y-82949000D02*
X153163500Y-82949000D01*
X150162500Y-68700000D02*
X150162500Y-66600000D01*
D67*
X175225000Y-64025000D02*
X174784620Y-64465380D01*
D66*
X187670000Y-105170000D02*
X187675000Y-105175000D01*
D67*
X141100000Y-98500000D02*
X142400000Y-98500000D01*
D66*
X160350000Y-82016176D02*
X161766176Y-80600000D01*
X187670000Y-95080000D02*
X189780000Y-95080000D01*
X159645000Y-73335473D02*
X159245341Y-72935814D01*
X161550000Y-71080000D02*
X161864130Y-70765870D01*
X183495000Y-83405000D02*
X183400000Y-83500000D01*
X152263500Y-83585500D02*
X152600000Y-83249000D01*
X149120000Y-73400000D02*
X149060000Y-73460000D01*
D67*
X180162500Y-124437500D02*
X179600000Y-125000000D01*
D66*
X148314500Y-83200000D02*
X148263500Y-83251000D01*
X156063500Y-83024791D02*
X155987709Y-82949000D01*
D67*
X181250000Y-97050000D02*
X181100000Y-96900000D01*
X148000000Y-104000000D02*
X148000000Y-105100000D01*
D66*
X149963500Y-89549000D02*
X150263500Y-89849000D01*
D67*
X192675000Y-62025000D02*
X192675000Y-59925000D01*
X151750000Y-114187500D02*
X151750000Y-112925000D01*
D66*
X152750000Y-91981250D02*
X151850000Y-92881250D01*
X160350000Y-94983824D02*
X160350000Y-94175000D01*
X159800000Y-90250000D02*
X159850000Y-90200000D01*
D67*
X165820000Y-72435000D02*
X168835000Y-72435000D01*
X178400000Y-123800000D02*
X179600000Y-125000000D01*
D66*
X149963500Y-88249000D02*
X149963500Y-89549000D01*
X147275000Y-88837500D02*
X146263500Y-89849000D01*
X151850000Y-92881250D02*
X151850000Y-93150000D01*
D67*
X184350000Y-94500000D02*
X184350000Y-93370000D01*
D66*
X161050000Y-72800000D02*
X160550000Y-72800000D01*
D67*
X132000000Y-98250000D02*
X132000000Y-97133620D01*
D66*
X161864130Y-70765870D02*
X161864130Y-70478344D01*
X160350000Y-82825000D02*
X160350000Y-82016176D01*
D67*
X161287500Y-63605000D02*
X160700000Y-64192500D01*
X116925000Y-94550000D02*
X116900000Y-94575000D01*
D66*
X159381155Y-72800000D02*
X159245341Y-72935814D01*
X153695000Y-57295000D02*
X153800000Y-57400000D01*
X161937500Y-80600000D02*
X161937500Y-79612500D01*
D67*
X145200000Y-78037500D02*
X143712500Y-78037500D01*
X169150130Y-57662500D02*
X169593815Y-58106185D01*
D66*
X153963500Y-88849000D02*
X155963500Y-88849000D01*
X191850000Y-95080000D02*
X189920000Y-95080000D01*
X148250000Y-122690000D02*
X148330000Y-122690000D01*
D67*
X153062500Y-102081250D02*
X153062500Y-103537500D01*
D66*
X182425000Y-78825000D02*
X183775000Y-78825000D01*
X192675000Y-77525000D02*
X192600000Y-77600000D01*
X182425000Y-93975000D02*
X182400000Y-94000000D01*
D68*
X134250000Y-102850000D02*
X133200000Y-101800000D01*
X124050000Y-103700000D02*
X124050000Y-102350000D01*
D67*
X158662500Y-96300000D02*
X158662500Y-97762500D01*
D66*
X163862500Y-103087500D02*
X163450000Y-103500000D01*
X146622500Y-58062500D02*
X147125000Y-58565000D01*
X150320000Y-126520000D02*
X150310000Y-126510000D01*
X159033824Y-96300000D02*
X160350000Y-94983824D01*
D68*
X154800000Y-121200000D02*
X152600000Y-121200000D01*
D66*
X148263500Y-85349000D02*
X146263500Y-85349000D01*
D67*
X180162500Y-123550000D02*
X180162500Y-124437500D01*
X158662500Y-97762500D02*
X158900000Y-98000000D01*
X116725000Y-63462500D02*
X116725000Y-64800000D01*
D66*
X190725000Y-92575000D02*
X190725000Y-93725000D01*
X182425000Y-92575000D02*
X182425000Y-93975000D01*
D67*
X127950000Y-101950000D02*
X127950000Y-100450000D01*
D66*
X192775000Y-113325000D02*
X192800000Y-113300000D01*
D67*
X138000000Y-105300000D02*
X139300000Y-105300000D01*
D66*
X142300000Y-76000000D02*
X142800000Y-76500000D01*
X153926000Y-84311500D02*
X152863500Y-83249000D01*
X139362500Y-77400000D02*
X139362500Y-76262500D01*
X153251118Y-71900000D02*
X153635000Y-71516118D01*
D67*
X125000000Y-86300000D02*
X126500000Y-86300000D01*
X173800000Y-72437500D02*
X173800000Y-74000000D01*
D66*
X167862500Y-98337500D02*
X167900000Y-98300000D01*
D67*
X142400000Y-98500000D02*
X143000000Y-97900000D01*
D66*
X191850000Y-103720000D02*
X191850000Y-105075000D01*
X174950000Y-84500000D02*
X176100000Y-83350000D01*
X152118750Y-93150000D02*
X151850000Y-93150000D01*
X166500000Y-98337500D02*
X167862500Y-98337500D01*
X161550000Y-71270000D02*
X161550000Y-71080000D01*
X152062500Y-95181250D02*
X153162500Y-94081250D01*
X186020000Y-103385000D02*
X186020000Y-104650000D01*
D67*
X151750000Y-114187500D02*
X154297500Y-114187500D01*
X160700000Y-64192500D02*
X160700000Y-64854315D01*
D66*
X157900000Y-80062500D02*
X157900000Y-79259620D01*
X160550000Y-72800000D02*
X159381155Y-72800000D01*
D67*
X168400000Y-57662500D02*
X169150130Y-57662500D01*
D66*
X148330000Y-122690000D02*
X148380000Y-122740000D01*
X152263500Y-85349000D02*
X152263500Y-83585500D01*
%TO.N,Net-(U8-~{WP}{slash}IO_{2})*%
X161287500Y-62335000D02*
X159835000Y-62335000D01*
%TO.N,+3.3V*%
D68*
X160415000Y-116400000D02*
X154385000Y-116400000D01*
D67*
X151750000Y-116262500D02*
X154247500Y-116262500D01*
X158800000Y-67100000D02*
X158100000Y-66400000D01*
X184979000Y-85651000D02*
X183400000Y-85651000D01*
D66*
X144900000Y-60137500D02*
X144900000Y-61600000D01*
D67*
X157700000Y-62200000D02*
X156882060Y-62200000D01*
X170600000Y-60100000D02*
X170600000Y-61700000D01*
D66*
X152100000Y-70295000D02*
X152125000Y-70270000D01*
X188500000Y-116800000D02*
X188500000Y-118275000D01*
X144962500Y-75962500D02*
X144350000Y-75350000D01*
X140950000Y-74350000D02*
X140950000Y-74850000D01*
X168900000Y-94762500D02*
X167937500Y-94762500D01*
D67*
X161720000Y-74635000D02*
X161720000Y-76080000D01*
D66*
X141437500Y-77400000D02*
X141437500Y-78787500D01*
X152400000Y-63700000D02*
X151100000Y-63700000D01*
X163745000Y-74045000D02*
X163800000Y-74100000D01*
D67*
X180500000Y-106500000D02*
X180500000Y-110000000D01*
X155137500Y-102081250D02*
X155137500Y-100118750D01*
D66*
X167937500Y-94762500D02*
X167350000Y-94175000D01*
D67*
X156882060Y-62200000D02*
X156534780Y-62547280D01*
D66*
X188050000Y-107050000D02*
X186250000Y-107050000D01*
X151100000Y-63700000D02*
X151000000Y-63600000D01*
X157900000Y-82137500D02*
X156312500Y-82137500D01*
D67*
X117100000Y-80700000D02*
X117100000Y-79100000D01*
D66*
X168900000Y-94762500D02*
X171000000Y-94762500D01*
X147125000Y-59835000D02*
X145202500Y-59835000D01*
D67*
X154247500Y-116262500D02*
X154385000Y-116400000D01*
D66*
X152125000Y-70270000D02*
X151425000Y-70270000D01*
X163745000Y-72435000D02*
X163745000Y-74045000D01*
D67*
X177275000Y-70025000D02*
X174137502Y-70025000D01*
X176450000Y-110000000D02*
X180500000Y-110000000D01*
X146962500Y-75962500D02*
X147000000Y-76000000D01*
X145200000Y-75962500D02*
X146962500Y-75962500D01*
D66*
X151275000Y-70420000D02*
X151225000Y-70370000D01*
D67*
X168400000Y-59737500D02*
X166745000Y-59737500D01*
X174137502Y-70025000D02*
X173700000Y-69587498D01*
D66*
X152237500Y-65262500D02*
X152300000Y-65200000D01*
D67*
X120112500Y-61462500D02*
X120355000Y-61705000D01*
D66*
X141437500Y-77400000D02*
X141437500Y-76062500D01*
D67*
X168400000Y-59737500D02*
X170237500Y-59737500D01*
D66*
X141437500Y-76062500D02*
X141800000Y-75700000D01*
X141800000Y-75200000D02*
X141800000Y-75700000D01*
X140950000Y-74850000D02*
X139950000Y-74850000D01*
X156312500Y-82137500D02*
X155175000Y-81000000D01*
D67*
X166745000Y-59737500D02*
X166687500Y-59795000D01*
X155137500Y-103543750D02*
X155137500Y-102081250D01*
D66*
X169275000Y-84750000D02*
X169862500Y-84162500D01*
X172400000Y-95400000D02*
X172400000Y-96400000D01*
X141450000Y-74850000D02*
X141800000Y-75200000D01*
D68*
X160415000Y-116400000D02*
X160415000Y-114235000D01*
D67*
X170237500Y-59737500D02*
X170600000Y-60100000D01*
D66*
X152100000Y-71180000D02*
X152100000Y-70295000D01*
X141437500Y-78787500D02*
X141500000Y-78850000D01*
D67*
X161400000Y-97900000D02*
X161400000Y-96962500D01*
D66*
X160850000Y-96187500D02*
X160850000Y-94175000D01*
X140950000Y-74850000D02*
X141450000Y-74850000D01*
X151600000Y-70745000D02*
X151275000Y-70420000D01*
X151600000Y-71180000D02*
X151600000Y-70745000D01*
X161815000Y-72285000D02*
X163595000Y-72285000D01*
X147710000Y-77500000D02*
X149000000Y-77500000D01*
D67*
X117450000Y-61462500D02*
X120112500Y-61462500D01*
X173700000Y-69587498D02*
X173700000Y-68750000D01*
D66*
X152237500Y-68700000D02*
X152237500Y-66600000D01*
X157900000Y-82137500D02*
X157900000Y-84725000D01*
X145200000Y-75962500D02*
X144962500Y-75962500D01*
X159862500Y-80600000D02*
X159862500Y-82812500D01*
X169862500Y-81507500D02*
X170640000Y-80730000D01*
X171000000Y-94762500D02*
X171762500Y-94762500D01*
D68*
X117300000Y-116300000D02*
X119200000Y-116300000D01*
D66*
X176700000Y-87800000D02*
X176700000Y-88750000D01*
X151225000Y-70370000D02*
X150380000Y-70370000D01*
X152237500Y-66600000D02*
X152237500Y-65262500D01*
X159862500Y-80600000D02*
X159862500Y-79662500D01*
X169862500Y-82300000D02*
X169862500Y-81507500D01*
D67*
X158800000Y-67700000D02*
X158800000Y-67100000D01*
D66*
X144350000Y-75350000D02*
X143650000Y-75350000D01*
D67*
X161720000Y-76080000D02*
X161700000Y-76100000D01*
D66*
X152125000Y-70270000D02*
X152125000Y-68812500D01*
D67*
X161400000Y-96962500D02*
X160737500Y-96300000D01*
X173300000Y-113150000D02*
X176450000Y-110000000D01*
D66*
X150380000Y-71400000D02*
X150380000Y-70370000D01*
X151425000Y-70270000D02*
X151275000Y-70420000D01*
X143900000Y-70200000D02*
X142600000Y-70200000D01*
X139950000Y-74850000D02*
X139900000Y-74800000D01*
X186250000Y-107050000D02*
X186200000Y-107100000D01*
D68*
X160415000Y-114235000D02*
X162150000Y-112500000D01*
D66*
X159862500Y-79662500D02*
X159350000Y-79150000D01*
X169862500Y-84162500D02*
X169862500Y-82300000D01*
X127500000Y-94800000D02*
X127500000Y-93875000D01*
X161550000Y-72800000D02*
X161550000Y-74465000D01*
X171762500Y-94762500D02*
X172400000Y-95400000D01*
X176700000Y-88750000D02*
X175950000Y-89500000D01*
%TO.N,/MCU/OSC IN*%
X151314500Y-86700000D02*
X154200000Y-86700000D01*
X149963500Y-85349000D02*
X151314500Y-86700000D01*
X154877000Y-86750000D02*
X157925000Y-86750000D01*
%TO.N,/MCU/BOOT0*%
X131975169Y-80531665D02*
X131496752Y-80053248D01*
X156989339Y-77500000D02*
X153957674Y-80531665D01*
X161700000Y-77500000D02*
X156989339Y-77500000D01*
X161850000Y-82825000D02*
X161850000Y-84050000D01*
X123100000Y-84400000D02*
X123100000Y-86200000D01*
X161850000Y-84050000D02*
X161800000Y-84100000D01*
X153957674Y-80531665D02*
X131975169Y-80531665D01*
X131500000Y-84300000D02*
X131400000Y-84400000D01*
X131400000Y-84400000D02*
X123100000Y-84400000D01*
%TO.N,Net-(Q1-G)*%
D67*
X146500000Y-103500000D02*
X148000000Y-102000000D01*
X145750000Y-101750000D02*
X145400000Y-101400000D01*
X148000000Y-100300000D02*
X148000000Y-102000000D01*
X145750000Y-103500000D02*
X146500000Y-103500000D01*
X145750000Y-103500000D02*
X145750000Y-101750000D01*
%TO.N,/Aux/AuxIgnite*%
D66*
X148000000Y-98300000D02*
X146500000Y-98300000D01*
X159850000Y-94175000D02*
X159259552Y-94175000D01*
X146500000Y-98300000D02*
X146400000Y-98200000D01*
X159259552Y-94175000D02*
X157500000Y-95934552D01*
X157500000Y-95934552D02*
X157500000Y-98100000D01*
%TO.N,Net-(Q4-G)*%
D67*
X125950000Y-100900000D02*
X125950000Y-101950000D01*
X125950000Y-100900000D02*
X126600000Y-100250000D01*
X127200000Y-103700000D02*
X127800000Y-104300000D01*
X126600000Y-100250000D02*
X126600000Y-99450000D01*
X125950000Y-103762500D02*
X125950000Y-102150000D01*
X125950000Y-103700000D02*
X127200000Y-103700000D01*
%TO.N,Net-(J10-Pin_2)*%
D68*
X121400000Y-105875000D02*
X124975000Y-105875000D01*
X127800000Y-107687500D02*
X127800000Y-108370000D01*
X125000000Y-105900000D02*
X126012500Y-105900000D01*
X126012500Y-105900000D02*
X127800000Y-107687500D01*
X124975000Y-105875000D02*
X125000000Y-105900000D01*
%TO.N,Net-(U1-PB2)*%
D66*
X165050000Y-101262500D02*
X165350000Y-100962500D01*
X165350000Y-100962500D02*
X165350000Y-94175000D01*
%TO.N,Net-(Q3-B)*%
D67*
X180162500Y-121650000D02*
X177450000Y-121650000D01*
X177300000Y-121800000D02*
X175600000Y-121800000D01*
%TO.N,+3.3VA*%
X155237500Y-96181250D02*
X155237500Y-94081250D01*
X155237500Y-94081250D02*
X155237500Y-91981250D01*
X155100000Y-98081250D02*
X155100000Y-96318750D01*
D66*
X155237500Y-91981250D02*
X156468750Y-90750000D01*
X156468750Y-90750000D02*
X157925000Y-90750000D01*
%TO.N,/Accelerometer/Accelerometer_MOSI*%
X151100000Y-73620000D02*
X150320000Y-74400000D01*
X161050000Y-71270000D02*
X161050000Y-70769239D01*
X139122921Y-73377079D02*
X139122921Y-75144459D01*
X141800000Y-72600000D02*
X141700000Y-72500000D01*
X161135786Y-69750000D02*
X165000000Y-69750000D01*
X161050000Y-70769239D02*
X161117893Y-70701346D01*
X162850000Y-94175000D02*
X162850001Y-91268292D01*
X141800000Y-73500000D02*
X141800000Y-72600000D01*
X141800000Y-73500000D02*
X141000000Y-72700000D01*
X161117893Y-70701346D02*
X161117893Y-69732107D01*
X150320000Y-74400000D02*
X150320000Y-74620000D01*
X139800000Y-72700000D02*
X139122921Y-73377079D01*
X141000000Y-72700000D02*
X139800000Y-72700000D01*
X161117893Y-69732107D02*
X161135786Y-69750000D01*
%TO.N,/MCU/BuzzerControl*%
X163350000Y-94175000D02*
X163350000Y-99650000D01*
X173500000Y-121900000D02*
X172000000Y-120400000D01*
X163350000Y-99650000D02*
X162375000Y-100625000D01*
X172000000Y-120400000D02*
X172000000Y-111900000D01*
%TO.N,/Aux/IgnitionPower*%
D69*
X152700000Y-123700000D02*
X152100000Y-123700000D01*
D70*
X127800000Y-113870000D02*
X136200000Y-113870000D01*
D69*
X145300000Y-114300000D02*
X145230000Y-114300000D01*
D70*
X144700000Y-113770000D02*
X145055000Y-113770000D01*
D69*
X147200000Y-116200000D02*
X145300000Y-114300000D01*
X152100000Y-123700000D02*
X147200000Y-118800000D01*
D68*
X122400000Y-113900000D02*
X127770000Y-113900000D01*
D69*
X145230000Y-114300000D02*
X144700000Y-113770000D01*
D70*
X145055000Y-113770000D02*
X150312500Y-108512500D01*
D68*
X127770000Y-113900000D02*
X127800000Y-113870000D01*
D69*
X147200000Y-118800000D02*
X147200000Y-116200000D01*
D70*
X144700000Y-113770000D02*
X136300000Y-113770000D01*
%TO.N,Net-(J4-Pin_2)*%
D68*
X135100000Y-105400000D02*
X136300000Y-106600000D01*
X132200000Y-105400000D02*
X135100000Y-105400000D01*
X136300000Y-106600000D02*
X136300000Y-108300000D01*
%TO.N,/MCU/OSC OUT*%
D66*
X153750000Y-87250000D02*
X153778340Y-87250000D01*
X150777000Y-86762500D02*
X147682250Y-86762500D01*
X155248660Y-87250000D02*
X157925000Y-87250000D01*
X153803340Y-87275000D02*
X155223660Y-87275000D01*
X153778340Y-87250000D02*
X153803340Y-87275000D01*
X152263500Y-88249000D02*
X150777000Y-86762500D01*
X155223660Y-87275000D02*
X155248660Y-87250000D01*
X152751000Y-88249000D02*
X153750000Y-87250000D01*
%TO.N,Net-(R16-Pad1)*%
X118700000Y-101400000D02*
X119625000Y-102325000D01*
D67*
X121400000Y-103875000D02*
X121400000Y-102325000D01*
X121400000Y-102325000D02*
X121400000Y-100875000D01*
D66*
X119625000Y-102325000D02*
X121400000Y-102325000D01*
%TO.N,/Drogue/DrougeADC*%
X163300000Y-102000000D02*
X163850000Y-101450000D01*
X163850000Y-101450000D02*
X163850000Y-94175000D01*
X129900000Y-101200000D02*
X129900000Y-102400000D01*
%TO.N,/MCU/NRST*%
X158699999Y-87750000D02*
X159400000Y-87049999D01*
X138800000Y-82100000D02*
X138700000Y-82200000D01*
X159400000Y-87049999D02*
X159400000Y-84500000D01*
X129975000Y-91875000D02*
X127500000Y-91875000D01*
X157925000Y-87750000D02*
X158699999Y-87750000D01*
X130100000Y-92000000D02*
X129975000Y-91875000D01*
X125200000Y-91812500D02*
X127437500Y-91812500D01*
X138700000Y-82200000D02*
X130200000Y-82200000D01*
%TO.N,/FlashMemory/ChipSelectFLash*%
X157925000Y-88250000D02*
X159368932Y-88250000D01*
X159368932Y-88250000D02*
X159450000Y-88168932D01*
X158506414Y-59795000D02*
X154300000Y-64001414D01*
X154300000Y-64001414D02*
X154300000Y-79025000D01*
X154300000Y-79025000D02*
X153325000Y-80000000D01*
X161287500Y-59795000D02*
X158506414Y-59795000D01*
%TO.N,/FlashSd/ChipSelectSDCARD*%
X180500000Y-87500000D02*
X179500000Y-86500000D01*
X159850000Y-88750000D02*
X159900000Y-88800000D01*
X179500000Y-86500000D02*
X174850000Y-86500000D01*
X180500000Y-87805000D02*
X180500000Y-87500000D01*
X185025000Y-87805000D02*
X180500000Y-87805000D01*
X157925000Y-88750000D02*
X159850000Y-88750000D01*
X180500000Y-87805000D02*
X178705000Y-87805000D01*
%TO.N,/LoRa/sxMIS0*%
X169918164Y-78550000D02*
X168800000Y-78550000D01*
X158987887Y-89537888D02*
X160112112Y-89537888D01*
X191875000Y-74025000D02*
X188300000Y-77600000D01*
X158699999Y-89250000D02*
X158987887Y-89537888D01*
X170868164Y-77600000D02*
X169918164Y-78550000D01*
X188300000Y-77600000D02*
X170868164Y-77600000D01*
X157925000Y-89250000D02*
X158699999Y-89250000D01*
X160112112Y-89537888D02*
X162600000Y-87050000D01*
%TO.N,/Aux/AuxADC*%
X155922361Y-90800000D02*
X156972361Y-89750000D01*
X156972361Y-89750000D02*
X157925000Y-89750000D01*
X148900000Y-90800000D02*
X155922361Y-90800000D01*
X147100000Y-92600000D02*
X148900000Y-90800000D01*
X147100000Y-93400000D02*
X147100000Y-92600000D01*
%TO.N,/GPS/GPS1_RX*%
X162500000Y-88400000D02*
X162500000Y-88100000D01*
X159650000Y-91250000D02*
X162500000Y-88400000D01*
X157925000Y-91250000D02*
X159650000Y-91250000D01*
%TO.N,/MCU/PyroADC*%
X156500000Y-101500000D02*
X156500000Y-92366176D01*
X116700000Y-101400000D02*
X116700000Y-100100000D01*
X156500000Y-92366176D02*
X157116176Y-91750000D01*
X116700000Y-100100000D02*
X116900000Y-99900000D01*
X157116176Y-91750000D02*
X157925000Y-91750000D01*
%TO.N,/MCU/RGB_DATA*%
X157000000Y-98519239D02*
X156850000Y-98369239D01*
X157000000Y-99200000D02*
X157000000Y-98519239D01*
X192950000Y-105750000D02*
X192900000Y-105700000D01*
X192950000Y-107050000D02*
X192950000Y-105750000D01*
X156850000Y-93325000D02*
X157925000Y-92250000D01*
X157500000Y-99700000D02*
X157000000Y-99200000D01*
X156850000Y-98369239D02*
X156850000Y-93325000D01*
%TO.N,/LoRa/sxReset*%
X161200000Y-94025000D02*
X161350000Y-94175000D01*
X192675000Y-66025000D02*
X190400000Y-66025000D01*
X161200000Y-93000000D02*
X161200000Y-94025000D01*
%TO.N,/Accelerometer/Accelerometer_MIS0*%
X162350000Y-94175000D02*
X162350000Y-91750483D01*
X160550000Y-71270000D02*
X160550000Y-70250000D01*
X151600000Y-75030000D02*
X151340000Y-75290000D01*
X160500000Y-68200000D02*
X161450000Y-67250000D01*
X160500000Y-70200000D02*
X160500000Y-68200000D01*
X151600000Y-73620000D02*
X151600000Y-75030000D01*
X140200000Y-73850000D02*
X140150000Y-73900000D01*
X160550000Y-70250000D02*
X160500000Y-70200000D01*
X162350000Y-91750483D02*
X162099517Y-91500000D01*
X140950000Y-73850000D02*
X140200000Y-73850000D01*
%TO.N,/LoRa/sxNSS*%
X189700000Y-68025000D02*
X192675000Y-68025000D01*
X164350000Y-94175000D02*
X164350000Y-93225000D01*
X164350000Y-93225000D02*
X163650000Y-92525000D01*
%TO.N,/LoRa/sxDIO1*%
X175423530Y-74025000D02*
X175124265Y-74324265D01*
X164800000Y-94125000D02*
X164800000Y-93249322D01*
X164800000Y-93249322D02*
X164450000Y-92899322D01*
X164450000Y-92899322D02*
X164450000Y-91950000D01*
X164450000Y-91950000D02*
X163700000Y-91200000D01*
X177275000Y-74025000D02*
X175423530Y-74025000D01*
%TO.N,/LoRa/sxSCK*%
X165850000Y-93400001D02*
X166023037Y-93226964D01*
X165850000Y-94175000D02*
X165850000Y-93400001D01*
X192675000Y-70025000D02*
X189600000Y-70025000D01*
X166023037Y-92773037D02*
X165000000Y-91750000D01*
X166023037Y-93226964D02*
X166023037Y-92773037D01*
%TO.N,/Accelerometer/ChipslectAccelerometer*%
X151000000Y-77000000D02*
X152100000Y-75900000D01*
X152100000Y-73620000D02*
X152100000Y-75900000D01*
X166350000Y-94175000D02*
X166350000Y-90050000D01*
X151000000Y-77500000D02*
X152700000Y-77500000D01*
%TO.N,Net-(U1-VCAP_1)*%
X166850000Y-94175000D02*
X166850000Y-95912500D01*
%TO.N,/Can_transceiver/CAN_RX_2*%
X147125000Y-61775000D02*
X146700000Y-62200000D01*
X170550000Y-92250000D02*
X172350000Y-94050000D01*
X147125000Y-61105000D02*
X147125000Y-61775000D01*
X169275000Y-92250000D02*
X170550000Y-92250000D01*
%TO.N,/Can_transceiver/CAN_TX_2*%
X147125000Y-56225000D02*
X146700000Y-55800000D01*
X171300000Y-91750000D02*
X173550000Y-94000000D01*
X169275000Y-91750000D02*
X171300000Y-91750000D01*
X147125000Y-57295000D02*
X147125000Y-56225000D01*
%TO.N,/MCU/PyroIgnite*%
X171950000Y-91250000D02*
X169275000Y-91250000D01*
X174200000Y-98200000D02*
X174200000Y-93500000D01*
X128250000Y-96500000D02*
X149700000Y-96500000D01*
X152000000Y-104300000D02*
X168100000Y-104300000D01*
X149700000Y-96500000D02*
X151400000Y-98200000D01*
X174200000Y-93500000D02*
X171950000Y-91250000D01*
X126600000Y-97450000D02*
X127300000Y-97450000D01*
X151400000Y-98200000D02*
X151400000Y-103700000D01*
X127300000Y-97450000D02*
X128250000Y-96500000D01*
X151400000Y-103700000D02*
X152000000Y-104300000D01*
X168100000Y-104300000D02*
X174200000Y-98200000D01*
%TO.N,/LoRa/sxMOSI*%
X167950000Y-90496578D02*
X167950000Y-90400000D01*
X188775000Y-72025000D02*
X188700000Y-72100000D01*
X192675000Y-72025000D02*
X188775000Y-72025000D01*
X169225000Y-90800000D02*
X168253422Y-90800000D01*
X168253422Y-90800000D02*
X167950000Y-90496578D01*
%TO.N,/Drogue/DrougeIgnite*%
X150750000Y-98250000D02*
X149400000Y-96900000D01*
X147124612Y-96900000D02*
X146724612Y-97300000D01*
X175000000Y-93305026D02*
X175000000Y-98600000D01*
X168950000Y-104650000D02*
X151550000Y-104650000D01*
X141200000Y-96900000D02*
X138600000Y-99500000D01*
X150750000Y-103850000D02*
X150750000Y-98250000D01*
X146724612Y-97300000D02*
X144480761Y-97300000D01*
X144080761Y-96900000D02*
X141200000Y-96900000D01*
X169275000Y-90250000D02*
X171944974Y-90250000D01*
X138600000Y-99500000D02*
X137900000Y-99500000D01*
X144480761Y-97300000D02*
X144080761Y-96900000D01*
X149400000Y-96900000D02*
X147124612Y-96900000D01*
X151550000Y-104650000D02*
X150750000Y-103850000D01*
X175000000Y-98600000D02*
X168950000Y-104650000D01*
X171944974Y-90250000D02*
X175000000Y-93305026D01*
%TO.N,/Barometer/Baraometer-ChipSelect*%
X167707598Y-88850000D02*
X164000000Y-88850000D01*
X169275000Y-89750000D02*
X168607598Y-89750000D01*
X168607598Y-89750000D02*
X167707598Y-88850000D01*
X159232500Y-71785000D02*
X159166250Y-71718750D01*
X160285000Y-71785000D02*
X159232500Y-71785000D01*
X158800000Y-69700000D02*
X158800000Y-71352500D01*
X158800000Y-71352500D02*
X159166250Y-71718750D01*
%TO.N,/GPS/RESET2*%
X171021648Y-88750000D02*
X171151204Y-88879556D01*
X169275000Y-88750000D02*
X171021648Y-88750000D01*
%TO.N,/GPS/RESET1*%
X169325000Y-88200000D02*
X170919294Y-88200000D01*
X170919294Y-88200000D02*
X171087338Y-88031956D01*
%TO.N,+5V*%
X171294445Y-87531956D02*
X171587338Y-87824849D01*
X171587338Y-88608583D02*
X175400000Y-92421245D01*
D67*
X183600000Y-104550000D02*
X184600000Y-103550000D01*
X178900000Y-105500000D02*
X165100000Y-105500000D01*
D66*
X175400000Y-92421245D02*
X175400000Y-105500000D01*
D67*
X181250000Y-104550000D02*
X180300000Y-105500000D01*
D66*
X170880231Y-87531956D02*
X171294445Y-87531956D01*
X185878000Y-101900000D02*
X185500000Y-102278000D01*
X188750000Y-100300000D02*
X188750000Y-100650000D01*
X185500000Y-103550000D02*
X184600000Y-103550000D01*
D67*
X165100000Y-105500000D02*
X162087500Y-108512500D01*
D66*
X186705000Y-101900000D02*
X185878000Y-101900000D01*
X170662187Y-87750000D02*
X170880231Y-87531956D01*
D67*
X181250000Y-104550000D02*
X183600000Y-104550000D01*
X181250000Y-100500000D02*
X181250000Y-104550000D01*
D66*
X186705000Y-97000000D02*
X187482000Y-97000000D01*
X187482000Y-101900000D02*
X186705000Y-101900000D01*
X188750000Y-98268000D02*
X188750000Y-100300000D01*
D67*
X180300000Y-105500000D02*
X178900000Y-105500000D01*
D66*
X169275000Y-87750000D02*
X170662187Y-87750000D01*
X188750000Y-100632000D02*
X187482000Y-101900000D01*
X171587338Y-87824849D02*
X171587338Y-88608583D01*
X188750000Y-100300000D02*
X188750000Y-100632000D01*
X187482000Y-97000000D02*
X188750000Y-98268000D01*
X185500000Y-102278000D02*
X185500000Y-103550000D01*
X175400000Y-105500000D02*
X178900000Y-105500000D01*
%TO.N,/IMU/ChipSelectIMU*%
X165400000Y-87250000D02*
X165350000Y-87300000D01*
X145900000Y-72700000D02*
X145900000Y-70200000D01*
X169275000Y-87250000D02*
X165400000Y-87250000D01*
X142800000Y-73500000D02*
X143500000Y-72800000D01*
X145750000Y-73010000D02*
X148870000Y-76130000D01*
X145750000Y-72850000D02*
X145900000Y-72700000D01*
X145750000Y-72850000D02*
X145750000Y-73010000D01*
X145700000Y-72800000D02*
X145750000Y-72850000D01*
X148870000Y-76130000D02*
X148870000Y-76290000D01*
X143500000Y-72800000D02*
X145700000Y-72800000D01*
%TO.N,/MCU/D-*%
X170911753Y-86725000D02*
X169925000Y-86725000D01*
X171887338Y-88484319D02*
X171887338Y-87700585D01*
X175700000Y-92296981D02*
X171887338Y-88484319D01*
X175700000Y-92721662D02*
X175700000Y-92296981D01*
X171887338Y-87700585D02*
X170911753Y-86725000D01*
X178000000Y-97000000D02*
X178000000Y-95021662D01*
X178000000Y-95021662D02*
X175700000Y-92721662D01*
%TO.N,/MCU/D+*%
X171298529Y-86250000D02*
X176548529Y-91500000D01*
X171298529Y-86250000D02*
X169275000Y-86250000D01*
X176548529Y-91500000D02*
X178500000Y-91500000D01*
%TO.N,/MCU/SWDIO*%
X165578928Y-85900000D02*
X158378928Y-93100000D01*
X158378928Y-93100000D02*
X158100000Y-93100000D01*
X140031665Y-81431665D02*
X140825000Y-82225000D01*
X130775736Y-81400000D02*
X131287869Y-81400000D01*
X169275000Y-85750000D02*
X169125000Y-85900000D01*
X122800000Y-73424264D02*
X130775736Y-81400000D01*
X122800000Y-62880000D02*
X122800000Y-73424264D01*
X169125000Y-85900000D02*
X165578928Y-85900000D01*
X121625000Y-61705000D02*
X122800000Y-62880000D01*
X131319534Y-81431665D02*
X140031665Y-81431665D01*
X131287869Y-81400000D02*
X131319534Y-81431665D01*
%TO.N,Net-(U1-VCAP_2)*%
X170562500Y-85250000D02*
X169275000Y-85250000D01*
X171312500Y-84500000D02*
X170562500Y-85250000D01*
%TO.N,/MCU/SWCLK*%
X154081938Y-80831665D02*
X131568062Y-80831665D01*
X165165380Y-78065380D02*
X156848223Y-78065380D01*
X124075000Y-73338603D02*
X124075000Y-64150000D01*
X165350000Y-78250000D02*
X165165380Y-78065380D01*
X156848223Y-78065380D02*
X154081938Y-80831665D01*
X131568062Y-80831665D02*
X124075000Y-73338603D01*
X167350000Y-82431284D02*
X168426388Y-81354896D01*
%TO.N,/FlashMemory/SPICLK*%
X166687500Y-62387500D02*
X167900000Y-63600000D01*
X166350000Y-82825000D02*
X166350000Y-80250000D01*
X167900000Y-63600000D02*
X168150000Y-63600000D01*
X173544974Y-79050000D02*
X167550000Y-79050000D01*
X185025000Y-84505000D02*
X178999974Y-84505000D01*
X178999974Y-84505000D02*
X173544974Y-79050000D01*
X166350000Y-80250000D02*
X167550000Y-79050000D01*
%TO.N,/GPS/GPS1_TX*%
X167751000Y-82799000D02*
X170550000Y-80000000D01*
X170550000Y-80000000D02*
X172550000Y-80000000D01*
X166101001Y-83851000D02*
X167562112Y-83851000D01*
X167562112Y-83851000D02*
X167751000Y-83662112D01*
X165850000Y-83599999D02*
X166101001Y-83851000D01*
X165850000Y-82825000D02*
X165850000Y-83599999D01*
X167751000Y-83662112D02*
X167751000Y-82799000D01*
%TO.N,/GPS/GPS2_RX*%
X165350000Y-79950000D02*
X167550000Y-77750000D01*
X169844974Y-77750000D02*
X172300000Y-75294974D01*
X175000000Y-53700000D02*
X174500000Y-53200000D01*
X174500000Y-53200000D02*
X166375000Y-53200000D01*
X172300000Y-57848529D02*
X175000000Y-55148529D01*
X172300000Y-75294974D02*
X172300000Y-57848529D01*
X175000000Y-55148529D02*
X175000000Y-53700000D01*
X166375000Y-53200000D02*
X164800000Y-51625000D01*
X167550000Y-77750000D02*
X169844974Y-77750000D01*
X165350000Y-82825000D02*
X165350000Y-79950000D01*
%TO.N,/GPS/GPS2_TX*%
X164850000Y-82825000D02*
X164850000Y-79750000D01*
X174400000Y-55100000D02*
X174400000Y-54900000D01*
X171750000Y-57750000D02*
X174400000Y-55100000D01*
X164850000Y-79750000D02*
X167500000Y-77100000D01*
X171750000Y-75350000D02*
X171750000Y-57750000D01*
X170000000Y-77100000D02*
X171750000Y-75350000D01*
X167500000Y-77100000D02*
X170000000Y-77100000D01*
%TO.N,/MCU/SWO*%
X164500000Y-78725000D02*
X164300000Y-78525000D01*
X154206202Y-81131665D02*
X131443798Y-81131665D01*
X164350000Y-82825000D02*
X164500000Y-82675000D01*
X156812867Y-78525000D02*
X154206202Y-81131665D01*
X164300000Y-78525000D02*
X156812867Y-78525000D01*
X123400000Y-73087867D02*
X123400000Y-65150000D01*
X131443798Y-81131665D02*
X123400000Y-73087867D01*
X164500000Y-82675000D02*
X164500000Y-78725000D01*
%TO.N,/FlashMemory/SPI_MISO*%
X173250000Y-79350000D02*
X169252401Y-79350000D01*
X159900000Y-60500000D02*
X160722500Y-60500000D01*
X183000000Y-82500000D02*
X183195000Y-82305000D01*
X163850000Y-82825000D02*
X163850000Y-81200000D01*
X180605000Y-86705000D02*
X180450000Y-86550000D01*
X180450000Y-86550000D02*
X173250000Y-79350000D01*
X169252401Y-79350000D02*
X167341581Y-81260820D01*
X160722500Y-60500000D02*
X161287500Y-61065000D01*
X183195000Y-82305000D02*
X185025000Y-82305000D01*
%TO.N,/FlashMemory/SPI_MOSI*%
X180805000Y-82305000D02*
X177405000Y-82305000D01*
X166687500Y-64837500D02*
X166850000Y-65000000D01*
X164450000Y-77100000D02*
X166700000Y-77100000D01*
X166700000Y-77100000D02*
X168600000Y-75200000D01*
X181750000Y-83250000D02*
X180805000Y-82305000D01*
X182795000Y-86705000D02*
X185025000Y-86705000D01*
X163350000Y-80908907D02*
X163153650Y-80712557D01*
X182500000Y-87000000D02*
X182795000Y-86705000D01*
X163350000Y-82825000D02*
X163350000Y-80908907D01*
X177405000Y-82305000D02*
X173450000Y-78350000D01*
X173450000Y-78350000D02*
X171400000Y-78350000D01*
X171400000Y-78350000D02*
X171300000Y-78450000D01*
X166687500Y-63605000D02*
X166687500Y-64837500D01*
%TO.N,/LoRa/sxDIO0*%
X174360000Y-74140000D02*
X174360000Y-75500000D01*
X167190000Y-85060000D02*
X164310001Y-85060000D01*
X164310001Y-85060000D02*
X162850000Y-83599999D01*
X176475000Y-72025000D02*
X174360000Y-74140000D01*
X162850000Y-82825000D02*
X162850000Y-83599999D01*
X177275000Y-72025000D02*
X176475000Y-72025000D01*
%TO.N,/LoRa/sxDIO2*%
X167819000Y-85561000D02*
X164041000Y-85561000D01*
X174655000Y-76025000D02*
X174120000Y-76560000D01*
X168020000Y-85360000D02*
X167819000Y-85561000D01*
X177275000Y-76025000D02*
X174655000Y-76025000D01*
X162350000Y-83870000D02*
X162350000Y-82825000D01*
X164041000Y-85561000D02*
X162350000Y-83870000D01*
%TO.N,Net-(Q2-G)*%
D67*
X136150000Y-103300000D02*
X138000000Y-103300000D01*
X136150000Y-101150000D02*
X135400000Y-100400000D01*
X138000000Y-103300000D02*
X138000000Y-101600000D01*
X136150000Y-103300000D02*
X136150000Y-101150000D01*
%TO.N,Net-(J9-CC2)*%
D66*
X184350000Y-96500000D02*
X185550000Y-97700000D01*
X185550000Y-97700000D02*
X186705000Y-97700000D01*
%TO.N,+BATT*%
D70*
X164030000Y-113870000D02*
X163200000Y-114700000D01*
D68*
X160600000Y-125135000D02*
X161000000Y-125535000D01*
D70*
X167300000Y-113870000D02*
X164030000Y-113870000D01*
X162065000Y-125535000D02*
X161000000Y-125535000D01*
X163200000Y-124400000D02*
X162065000Y-125535000D01*
X163200000Y-114700000D02*
X163200000Y-124400000D01*
X161000000Y-125535000D02*
X157615000Y-125535000D01*
D68*
X160600000Y-122900000D02*
X160600000Y-125135000D01*
%TO.N,Net-(JP1-A)*%
D66*
X143200000Y-62175000D02*
X143200000Y-56300000D01*
%TO.N,/Can_transceiver/CANL*%
X129400000Y-67600000D02*
X137900000Y-67600000D01*
X146594239Y-63625000D02*
X150384239Y-59835000D01*
X150384239Y-59835000D02*
X152075000Y-59835000D01*
X142275000Y-63625000D02*
X143200000Y-63625000D01*
X138300000Y-67600000D02*
X142275000Y-63625000D01*
X143200000Y-63625000D02*
X146594239Y-63625000D01*
%TO.N,Net-(R21-Pad1)*%
X141000000Y-101550000D02*
X144200000Y-98350000D01*
X145100000Y-95500000D02*
X145100000Y-93400000D01*
X141000000Y-101800000D02*
X141000000Y-101550000D01*
D67*
X141000000Y-103000000D02*
X141000000Y-101800000D01*
X141000000Y-101800000D02*
X141000000Y-100600000D01*
%TO.N,Net-(D2-K)*%
D68*
X149425000Y-117275000D02*
X150850000Y-118700000D01*
X150850000Y-118700000D02*
X154385000Y-118700000D01*
X154775000Y-111250000D02*
X150500000Y-111250000D01*
X154862500Y-107775000D02*
X154787500Y-107850000D01*
X157712500Y-107775000D02*
X154862500Y-107775000D01*
X154787500Y-111237500D02*
X154775000Y-111250000D01*
X149425000Y-112325000D02*
X149425000Y-117275000D01*
X150500000Y-111250000D02*
X149425000Y-112325000D01*
X156462500Y-111250000D02*
X154775000Y-111250000D01*
X154787500Y-111237500D02*
X154787500Y-107850000D01*
%TO.N,Net-(Q6-G)*%
X156800000Y-121200000D02*
X156800000Y-122180000D01*
X156800000Y-122180000D02*
X157615000Y-122995000D01*
%TO.N,Net-(U8-~{HOLD}{slash}~{RESET}{slash}IO_{3})*%
D66*
X168600000Y-61700000D02*
X167322500Y-61700000D01*
X167322500Y-61700000D02*
X166687500Y-61065000D01*
%TO.N,Net-(J2-Pin_2)*%
D68*
X144270000Y-108270000D02*
X141000000Y-105000000D01*
X144800000Y-105500000D02*
X144800000Y-108170000D01*
%TO.N,Net-(J7-In)*%
D71*
X177275000Y-62025000D02*
X179400000Y-59900000D01*
X179400000Y-59900000D02*
X179400000Y-56300000D01*
%TO.N,Net-(PowerLED1-A)*%
D66*
X188700000Y-114800000D02*
X190825000Y-114800000D01*
%TO.N,Net-(J9-CC1)*%
X184650000Y-100700000D02*
X186705000Y-100700000D01*
%TO.N,/usb_type_c/D+*%
X182200000Y-98000000D02*
X182200000Y-97200000D01*
X187731000Y-99651000D02*
X187682000Y-99700000D01*
X182900000Y-98700000D02*
X182200000Y-98000000D01*
X182200000Y-98000000D02*
X182200000Y-97151471D01*
X186705000Y-98700000D02*
X182900000Y-98700000D01*
X187731000Y-98749000D02*
X187731000Y-99651000D01*
X182200000Y-97200000D02*
X178500000Y-93500000D01*
X187682000Y-99700000D02*
X186705000Y-99700000D01*
X187682000Y-98700000D02*
X187731000Y-98749000D01*
X186705000Y-98700000D02*
X187682000Y-98700000D01*
%TO.N,/usb_type_c/D-*%
X181274000Y-99249000D02*
X185679000Y-99249000D01*
X180300000Y-98000000D02*
X179000000Y-98000000D01*
X186705000Y-99200000D02*
X185728000Y-99200000D01*
X180300000Y-98000000D02*
X180300000Y-98275000D01*
X185679000Y-100229000D02*
X185699000Y-100249000D01*
X180300000Y-98275000D02*
X181274000Y-99249000D01*
X185728000Y-99200000D02*
X185679000Y-99249000D01*
X186656000Y-100249000D02*
X186705000Y-100200000D01*
X185679000Y-99249000D02*
X185679000Y-100229000D01*
X179000000Y-98000000D02*
X178000000Y-99000000D01*
X185699000Y-100249000D02*
X186656000Y-100249000D01*
%TO.N,Net-(BZ1--)*%
D67*
X178150000Y-115250000D02*
X180500000Y-117600000D01*
X173300000Y-115250000D02*
X178150000Y-115250000D01*
X182000000Y-122562500D02*
X182037500Y-122600000D01*
X182000000Y-119100000D02*
X182000000Y-122562500D01*
X180500000Y-117600000D02*
X182000000Y-119100000D01*
%TO.N,Net-(C2-Pad2)*%
X122925000Y-89650000D02*
X125612500Y-89650000D01*
%TO.N,/Can_transceiver/CANH*%
D66*
X145000000Y-55200000D02*
X145000000Y-56000000D01*
X147469239Y-55150000D02*
X150884239Y-58565000D01*
X129400000Y-62100000D02*
X137900000Y-62100000D01*
X145000000Y-56000000D02*
X145000000Y-55300000D01*
X144600000Y-54800000D02*
X145000000Y-55200000D01*
X137900000Y-62100000D02*
X137900000Y-58900000D01*
X150884239Y-58565000D02*
X152075000Y-58565000D01*
X142000000Y-54800000D02*
X144600000Y-54800000D01*
X137900000Y-58900000D02*
X142000000Y-54800000D01*
X145000000Y-55300000D02*
X145150000Y-55150000D01*
X145150000Y-55150000D02*
X147469239Y-55150000D01*
%TD*%
%TA.AperFunction,Conductor*%
%TO.N,GND*%
G36*
X153018957Y-116831954D02*
G01*
X153099739Y-116885930D01*
X153145529Y-116948956D01*
X153169886Y-116996759D01*
X153169888Y-116996762D01*
X153169889Y-116996763D01*
X153263237Y-117090111D01*
X153380862Y-117150044D01*
X153478449Y-117165500D01*
X154105675Y-117165499D01*
X154154252Y-117170283D01*
X154306158Y-117200500D01*
X158875501Y-117200500D01*
X158970789Y-117219454D01*
X159051571Y-117273430D01*
X159105547Y-117354212D01*
X159124501Y-117449500D01*
X159124501Y-117810400D01*
X159135074Y-117898462D01*
X159135076Y-117898467D01*
X159190339Y-118038605D01*
X159281362Y-118158638D01*
X159393185Y-118243435D01*
X159401395Y-118249661D01*
X159401397Y-118249662D01*
X159431997Y-118261729D01*
X159541533Y-118304924D01*
X159629599Y-118315500D01*
X161200400Y-118315499D01*
X161288462Y-118304925D01*
X161288463Y-118304924D01*
X161288467Y-118304924D01*
X161428605Y-118249661D01*
X161500048Y-118195484D01*
X161587423Y-118153012D01*
X161684405Y-118147209D01*
X161776225Y-118178961D01*
X161848904Y-118243435D01*
X161891378Y-118330813D01*
X161899500Y-118393890D01*
X161899500Y-119480490D01*
X161880546Y-119575778D01*
X161826570Y-119656560D01*
X161771073Y-119698350D01*
X161615545Y-119784426D01*
X161590409Y-119796550D01*
X161305672Y-119914708D01*
X161279338Y-119923943D01*
X160983165Y-120009498D01*
X160955961Y-120015729D01*
X160652066Y-120067605D01*
X160624335Y-120070752D01*
X160309563Y-120088692D01*
X160295611Y-120089095D01*
X150731287Y-120097374D01*
X150635982Y-120078502D01*
X150589047Y-120052899D01*
X150557841Y-120031229D01*
X150546436Y-120041957D01*
X150455580Y-120076370D01*
X150372796Y-120076263D01*
X150067139Y-120024330D01*
X150039778Y-120018077D01*
X149910112Y-119980640D01*
X149823821Y-119935998D01*
X149803112Y-119917481D01*
X148323430Y-118437799D01*
X148269454Y-118357017D01*
X148250500Y-118261729D01*
X148250500Y-117778090D01*
X148269454Y-117682802D01*
X148323430Y-117602020D01*
X148404212Y-117548044D01*
X148499500Y-117529090D01*
X148594788Y-117548044D01*
X148675570Y-117602020D01*
X148707404Y-117644947D01*
X148708810Y-117644008D01*
X148798400Y-117778090D01*
X148803211Y-117785289D01*
X150228209Y-119210286D01*
X150228211Y-119210289D01*
X150339711Y-119321789D01*
X150470821Y-119409394D01*
X150606274Y-119465500D01*
X150616503Y-119469737D01*
X150616505Y-119469737D01*
X150616506Y-119469738D01*
X150769099Y-119500090D01*
X150771157Y-119500500D01*
X154463842Y-119500500D01*
X154615747Y-119470283D01*
X154664325Y-119465499D01*
X155291549Y-119465499D01*
X155291550Y-119465499D01*
X155389138Y-119450044D01*
X155506763Y-119390111D01*
X155600111Y-119296763D01*
X155660044Y-119179138D01*
X155675500Y-119081551D01*
X155675499Y-118318450D01*
X155660044Y-118220862D01*
X155600111Y-118103237D01*
X155506763Y-118009889D01*
X155506762Y-118009888D01*
X155389140Y-117949957D01*
X155389139Y-117949956D01*
X155389138Y-117949956D01*
X155389136Y-117949955D01*
X155389131Y-117949954D01*
X155291562Y-117934501D01*
X155291553Y-117934500D01*
X155291551Y-117934500D01*
X155291547Y-117934500D01*
X154664322Y-117934500D01*
X154615744Y-117929715D01*
X154463846Y-117899500D01*
X154463842Y-117899500D01*
X151284716Y-117899500D01*
X151189428Y-117880546D01*
X151108649Y-117826572D01*
X150964879Y-117682802D01*
X150799479Y-117517401D01*
X150745503Y-117436620D01*
X150726549Y-117341332D01*
X150745503Y-117246043D01*
X150799480Y-117165262D01*
X150880261Y-117111286D01*
X150975549Y-117092332D01*
X151066893Y-117109692D01*
X151143436Y-117139877D01*
X151231898Y-117150500D01*
X151231901Y-117150500D01*
X152268099Y-117150500D01*
X152268102Y-117150500D01*
X152356564Y-117139877D01*
X152482761Y-117090111D01*
X152497340Y-117084362D01*
X152497340Y-117084361D01*
X152497342Y-117084361D01*
X152617922Y-116992922D01*
X152679632Y-116911544D01*
X152752310Y-116847072D01*
X152844130Y-116815319D01*
X152878036Y-116813000D01*
X152923669Y-116813000D01*
X153018957Y-116831954D01*
G37*
%TD.AperFunction*%
%TA.AperFunction,Conductor*%
G36*
X160285014Y-106108967D02*
G01*
X160601595Y-106124503D01*
X160629479Y-106127454D01*
X160740605Y-106145589D01*
X160831594Y-106179641D01*
X160902628Y-106245923D01*
X160942889Y-106334343D01*
X160949500Y-106391337D01*
X160949500Y-109443099D01*
X160960123Y-109531564D01*
X160960124Y-109531568D01*
X161015637Y-109672340D01*
X161024048Y-109683431D01*
X161107078Y-109792922D01*
X161161312Y-109834049D01*
X161227659Y-109884362D01*
X161342454Y-109929631D01*
X161368436Y-109939877D01*
X161456898Y-109950500D01*
X161456901Y-109950500D01*
X162718099Y-109950500D01*
X162718102Y-109950500D01*
X162806564Y-109939877D01*
X162947342Y-109884361D01*
X162947342Y-109884360D01*
X162959653Y-109879506D01*
X163055250Y-109862181D01*
X163150201Y-109882759D01*
X163230049Y-109938107D01*
X163282639Y-110019798D01*
X163300000Y-110111145D01*
X163300000Y-111959391D01*
X163281046Y-112054679D01*
X163227070Y-112135461D01*
X163146288Y-112189437D01*
X163051000Y-112208391D01*
X162955712Y-112189437D01*
X162874930Y-112135461D01*
X162843964Y-112097728D01*
X162771791Y-111989713D01*
X162771789Y-111989710D01*
X162660290Y-111878211D01*
X162660286Y-111878208D01*
X162660284Y-111878206D01*
X162529186Y-111790610D01*
X162529181Y-111790607D01*
X162529179Y-111790606D01*
X162383500Y-111730263D01*
X162383502Y-111730263D01*
X162383498Y-111730262D01*
X162228843Y-111699500D01*
X162071158Y-111699500D01*
X161916503Y-111730262D01*
X161916502Y-111730262D01*
X161916499Y-111730263D01*
X161770825Y-111790603D01*
X161770820Y-111790606D01*
X161639714Y-111878208D01*
X159904711Y-113613211D01*
X159904710Y-113613210D01*
X159793212Y-113724709D01*
X159793210Y-113724712D01*
X159705606Y-113855819D01*
X159705603Y-113855826D01*
X159645263Y-114001502D01*
X159645261Y-114001507D01*
X159614500Y-114156153D01*
X159614500Y-114296832D01*
X159595546Y-114392120D01*
X159541570Y-114472902D01*
X159460788Y-114526878D01*
X159456848Y-114528471D01*
X159401394Y-114550339D01*
X159281365Y-114641359D01*
X159281359Y-114641365D01*
X159190338Y-114761395D01*
X159190337Y-114761397D01*
X159135077Y-114901529D01*
X159135076Y-114901531D01*
X159135076Y-114901533D01*
X159124916Y-114986139D01*
X159124500Y-114989603D01*
X159124500Y-115350500D01*
X159105546Y-115445788D01*
X159051570Y-115526570D01*
X158970788Y-115580546D01*
X158875500Y-115599500D01*
X156287754Y-115599500D01*
X156192466Y-115580546D01*
X156111684Y-115526570D01*
X156057708Y-115445788D01*
X156038754Y-115350500D01*
X156057708Y-115255212D01*
X156111684Y-115174430D01*
X156123429Y-115162684D01*
X156123431Y-115162682D01*
X156242910Y-114986152D01*
X156242917Y-114986139D01*
X156326831Y-114790184D01*
X156326833Y-114790175D01*
X156372144Y-114581890D01*
X156372147Y-114581868D01*
X156375000Y-114533987D01*
X156375000Y-114350001D01*
X156374999Y-114350000D01*
X153730001Y-114350000D01*
X153715431Y-114364570D01*
X153634649Y-114418546D01*
X153539361Y-114437500D01*
X151999000Y-114437500D01*
X151903712Y-114418546D01*
X151822930Y-114364570D01*
X151768954Y-114283788D01*
X151750000Y-114188500D01*
X151750000Y-114187500D01*
X151749000Y-114187500D01*
X151653712Y-114168546D01*
X151572930Y-114114570D01*
X151518954Y-114033788D01*
X151500000Y-113938500D01*
X151500000Y-112600001D01*
X152000000Y-112600001D01*
X152000000Y-113937500D01*
X152139999Y-113937500D01*
X152154569Y-113922930D01*
X152235351Y-113868954D01*
X152330639Y-113850000D01*
X154134999Y-113850000D01*
X154135000Y-113849999D01*
X154135000Y-112635001D01*
X154635000Y-112635001D01*
X154635000Y-113849999D01*
X154635001Y-113850000D01*
X156374998Y-113850000D01*
X156374999Y-113849999D01*
X156374999Y-113666024D01*
X156372146Y-113618127D01*
X156326830Y-113409814D01*
X156242917Y-113213860D01*
X156242910Y-113213847D01*
X156123431Y-113037317D01*
X155972682Y-112886568D01*
X155796152Y-112767089D01*
X155796139Y-112767082D01*
X155600184Y-112683168D01*
X155600175Y-112683166D01*
X155391890Y-112637855D01*
X155391868Y-112637852D01*
X155343987Y-112635000D01*
X154635001Y-112635000D01*
X154635000Y-112635001D01*
X154135000Y-112635001D01*
X154134999Y-112635000D01*
X153426024Y-112635000D01*
X153378127Y-112637853D01*
X153169817Y-112683168D01*
X153017996Y-112748182D01*
X152922940Y-112768268D01*
X152827433Y-112750450D01*
X152817000Y-112745995D01*
X152639515Y-112665377D01*
X152421334Y-112610400D01*
X152421321Y-112610398D01*
X152289202Y-112600000D01*
X152000001Y-112600000D01*
X152000000Y-112600001D01*
X151500000Y-112600001D01*
X151499999Y-112600000D01*
X151210817Y-112600000D01*
X151078663Y-112610400D01*
X150874720Y-112661789D01*
X150777689Y-112666692D01*
X150686168Y-112634089D01*
X150614090Y-112568944D01*
X150572428Y-112481175D01*
X150567525Y-112384144D01*
X150600128Y-112292623D01*
X150637812Y-112244266D01*
X150758649Y-112123430D01*
X150839431Y-112069454D01*
X150934718Y-112050500D01*
X154696158Y-112050500D01*
X155561517Y-112050500D01*
X155656805Y-112069454D01*
X155716972Y-112109655D01*
X155718508Y-112107631D01*
X155732077Y-112117920D01*
X155732078Y-112117922D01*
X155809553Y-112176673D01*
X155852659Y-112209362D01*
X155941170Y-112244266D01*
X155993436Y-112264877D01*
X156081898Y-112275500D01*
X156081901Y-112275500D01*
X156843097Y-112275500D01*
X156843102Y-112275500D01*
X156895061Y-112269260D01*
X156991924Y-112276717D01*
X157078565Y-112320676D01*
X157129425Y-112374682D01*
X157236566Y-112529331D01*
X157395670Y-112688435D01*
X157580620Y-112816568D01*
X157580624Y-112816570D01*
X157785482Y-112909622D01*
X158003665Y-112964599D01*
X158003678Y-112964601D01*
X158135803Y-112974999D01*
X158287499Y-112974998D01*
X158287500Y-112974998D01*
X158787500Y-112974998D01*
X158787501Y-112974999D01*
X158939182Y-112974999D01*
X159071334Y-112964599D01*
X159289517Y-112909622D01*
X159494375Y-112816570D01*
X159494379Y-112816568D01*
X159679329Y-112688435D01*
X159838435Y-112529329D01*
X159966568Y-112344379D01*
X159966570Y-112344375D01*
X160059622Y-112139517D01*
X160114599Y-111921334D01*
X160114601Y-111921321D01*
X160124999Y-111789202D01*
X160125000Y-111789190D01*
X160125000Y-111500001D01*
X160124999Y-111500000D01*
X158787500Y-111500000D01*
X158787500Y-112974998D01*
X158287500Y-112974998D01*
X158287500Y-111499000D01*
X158306454Y-111403712D01*
X158360430Y-111322930D01*
X158441212Y-111268954D01*
X158536500Y-111250000D01*
X158537500Y-111250000D01*
X158537500Y-111249000D01*
X158556454Y-111153712D01*
X158610430Y-111072930D01*
X158691212Y-111018954D01*
X158786500Y-111000000D01*
X160124998Y-111000000D01*
X160124999Y-110999999D01*
X160124999Y-110710818D01*
X160114599Y-110578665D01*
X160059622Y-110360482D01*
X159966570Y-110155624D01*
X159966568Y-110155620D01*
X159838435Y-109970670D01*
X159679329Y-109811564D01*
X159494379Y-109683431D01*
X159494375Y-109683429D01*
X159289517Y-109590377D01*
X159071334Y-109535400D01*
X159060986Y-109533702D01*
X159061450Y-109530869D01*
X158986364Y-109509660D01*
X158910092Y-109449480D01*
X158862655Y-109364693D01*
X158850500Y-109287846D01*
X158850500Y-106366261D01*
X158869454Y-106270973D01*
X158923430Y-106190191D01*
X159004212Y-106136215D01*
X159097674Y-106117268D01*
X160271019Y-106108676D01*
X160285014Y-106108967D01*
G37*
%TD.AperFunction*%
%TA.AperFunction,Conductor*%
G36*
X153494101Y-106177255D02*
G01*
X153575276Y-106230639D01*
X153629842Y-106311023D01*
X153649493Y-106406170D01*
X153649500Y-106407993D01*
X153649500Y-109518102D01*
X153658179Y-109590377D01*
X153660123Y-109606564D01*
X153660124Y-109606568D01*
X153715637Y-109747340D01*
X153750204Y-109792923D01*
X153807078Y-109867922D01*
X153888455Y-109929632D01*
X153952928Y-110002310D01*
X153984681Y-110094130D01*
X153987000Y-110128036D01*
X153987000Y-110200500D01*
X153968046Y-110295788D01*
X153914070Y-110376570D01*
X153833288Y-110430546D01*
X153738000Y-110449500D01*
X151339600Y-110449500D01*
X151244312Y-110430546D01*
X151163530Y-110376570D01*
X151109554Y-110295788D01*
X151090600Y-110200500D01*
X151109554Y-110105212D01*
X151163530Y-110024430D01*
X151244312Y-109970454D01*
X151248253Y-109968861D01*
X151272340Y-109959362D01*
X151272340Y-109959361D01*
X151272342Y-109959361D01*
X151392922Y-109867922D01*
X151484361Y-109747342D01*
X151539877Y-109606564D01*
X151550500Y-109518102D01*
X151550500Y-108950270D01*
X151562687Y-108873325D01*
X151580977Y-108817034D01*
X151613000Y-108614851D01*
X151613000Y-108410148D01*
X151612999Y-108410145D01*
X151612999Y-108410138D01*
X151580979Y-108207975D01*
X151580978Y-108207973D01*
X151580977Y-108207965D01*
X151562685Y-108151667D01*
X151550500Y-108074729D01*
X151550500Y-106419717D01*
X151569454Y-106324429D01*
X151623430Y-106243647D01*
X151704212Y-106189671D01*
X151797672Y-106170724D01*
X153398682Y-106159001D01*
X153494101Y-106177255D01*
G37*
%TD.AperFunction*%
%TD*%
%TA.AperFunction,Conductor*%
%TO.N,GND*%
G36*
X148545718Y-121582692D02*
G01*
X148556078Y-121587999D01*
X148618624Y-121633544D01*
X149976172Y-122991093D01*
X151271570Y-124286491D01*
X151325546Y-124367273D01*
X151344500Y-124462561D01*
X151344500Y-126005500D01*
X151349409Y-126055346D01*
X151368363Y-126150634D01*
X151406513Y-126242735D01*
X151420622Y-126263851D01*
X151457800Y-126353608D01*
X151457799Y-126450763D01*
X151451665Y-126475110D01*
X151445742Y-126494445D01*
X151445741Y-126494451D01*
X151445741Y-126494452D01*
X151439500Y-126541862D01*
X151439500Y-127068133D01*
X151440924Y-127078951D01*
X151445741Y-127115549D01*
X151445742Y-127115550D01*
X151449234Y-127123038D01*
X151465428Y-127169083D01*
X151470008Y-127187797D01*
X151474249Y-127284859D01*
X151441024Y-127376156D01*
X151375389Y-127447788D01*
X151287343Y-127488850D01*
X151272998Y-127492361D01*
X151213801Y-127499500D01*
X149177130Y-127499500D01*
X149128549Y-127494715D01*
X149095316Y-127488104D01*
X149023394Y-127461788D01*
X149020678Y-127460286D01*
X148996995Y-127445393D01*
X148797858Y-127303955D01*
X148786614Y-127295480D01*
X148775563Y-127286648D01*
X148764832Y-127277562D01*
X148543312Y-127078951D01*
X148533076Y-127069236D01*
X148523133Y-127059249D01*
X148513466Y-127048973D01*
X148478581Y-127009718D01*
X148315828Y-126826575D01*
X148306788Y-126815803D01*
X148298005Y-126804714D01*
X148289601Y-126793460D01*
X148118373Y-126550117D01*
X148110584Y-126538352D01*
X148103150Y-126526401D01*
X148096043Y-126514220D01*
X147953459Y-126253111D01*
X147947053Y-126240547D01*
X147941010Y-126227816D01*
X147935327Y-126214912D01*
X147924925Y-126189351D01*
X147870390Y-126055337D01*
X147845403Y-125993932D01*
X147823188Y-125939343D01*
X147818238Y-125926116D01*
X147813670Y-125912769D01*
X147809484Y-125899306D01*
X147781143Y-125798134D01*
X147781142Y-125798127D01*
X147729238Y-125612836D01*
X147725824Y-125599171D01*
X147722790Y-125585377D01*
X147720159Y-125571556D01*
X147717868Y-125557336D01*
X147672821Y-125277793D01*
X147670975Y-125263824D01*
X147669525Y-125249804D01*
X147668474Y-125235780D01*
X147663260Y-125123528D01*
X147654174Y-124927958D01*
X147653947Y-124920907D01*
X147653820Y-124913853D01*
X147653793Y-124906815D01*
X147654182Y-124868918D01*
X147657106Y-124583728D01*
X147669492Y-123375528D01*
X147669678Y-123368192D01*
X147669981Y-123360656D01*
X147670386Y-123353327D01*
X147693257Y-123028104D01*
X147694750Y-123013262D01*
X147696682Y-122998500D01*
X147699057Y-122983788D01*
X147758548Y-122674666D01*
X147761790Y-122660176D01*
X147765488Y-122645698D01*
X147769600Y-122631401D01*
X147865642Y-122331625D01*
X147870604Y-122317597D01*
X147876003Y-122303676D01*
X147881799Y-122289967D01*
X148013023Y-122003812D01*
X148019611Y-121990515D01*
X148026650Y-121977317D01*
X148034020Y-121964444D01*
X148133160Y-121802699D01*
X148198530Y-121696047D01*
X148206694Y-121683586D01*
X148213079Y-121674448D01*
X148255887Y-121627375D01*
X148270896Y-121614613D01*
X148355765Y-121567327D01*
X148452272Y-121556118D01*
X148545718Y-121582692D01*
G37*
%TD.AperFunction*%
%TA.AperFunction,Conductor*%
G36*
X153479539Y-120395374D02*
G01*
X153485557Y-120396561D01*
X153500001Y-120399411D01*
X153589819Y-120436448D01*
X153658627Y-120505038D01*
X153695948Y-120594734D01*
X153698363Y-120606774D01*
X153701938Y-120681038D01*
X153700000Y-120700008D01*
X153700000Y-120700028D01*
X153700000Y-120949999D01*
X153700001Y-120950000D01*
X154526473Y-120950000D01*
X154575054Y-120954785D01*
X154585108Y-120956785D01*
X154674867Y-120993966D01*
X154743565Y-121062666D01*
X154780743Y-121152426D01*
X154780742Y-121218103D01*
X154799000Y-121214472D01*
X154894288Y-121233426D01*
X154975070Y-121287402D01*
X155029046Y-121368184D01*
X155043216Y-121414896D01*
X155045216Y-121424951D01*
X155050000Y-121473527D01*
X155050000Y-122399998D01*
X155050001Y-122399999D01*
X155199957Y-122399999D01*
X155199968Y-122399999D01*
X155199984Y-122399998D01*
X155302699Y-122389505D01*
X155302702Y-122389504D01*
X155469119Y-122334359D01*
X155469121Y-122334358D01*
X155618341Y-122242318D01*
X155618348Y-122242313D01*
X155646636Y-122214025D01*
X155683047Y-122189694D01*
X155689525Y-122187011D01*
X155691373Y-122186060D01*
X155692830Y-122185642D01*
X155772806Y-122152513D01*
X155869961Y-122152512D01*
X155959721Y-122189689D01*
X156028421Y-122258387D01*
X156031590Y-122263129D01*
X156032193Y-122264032D01*
X156069363Y-122353776D01*
X156078341Y-122398912D01*
X156078342Y-122398914D01*
X156134910Y-122535484D01*
X156134916Y-122535495D01*
X156164935Y-122580421D01*
X156174387Y-122594567D01*
X156174427Y-122594628D01*
X156216802Y-122658049D01*
X156217044Y-122658412D01*
X156217048Y-122658416D01*
X156289231Y-122730600D01*
X156320199Y-122768336D01*
X156333032Y-122787543D01*
X156370206Y-122877287D01*
X156374713Y-122899940D01*
X156379500Y-122948528D01*
X156379500Y-123258138D01*
X156385740Y-123305543D01*
X156385740Y-123305544D01*
X156385741Y-123305546D01*
X156407998Y-123353276D01*
X156434251Y-123409577D01*
X156461262Y-123436588D01*
X156492231Y-123474326D01*
X156503818Y-123491668D01*
X156540996Y-123581428D01*
X156540993Y-123678583D01*
X156503814Y-123768338D01*
X156492227Y-123785679D01*
X156461264Y-123823409D01*
X156434251Y-123850422D01*
X156387175Y-123951374D01*
X156385833Y-123954151D01*
X156385741Y-123954450D01*
X156379500Y-124001862D01*
X156379500Y-124528133D01*
X156381815Y-124545725D01*
X156379160Y-124626782D01*
X156363806Y-124703981D01*
X156360128Y-124728771D01*
X156348131Y-124850570D01*
X156347212Y-124863048D01*
X156344807Y-124911976D01*
X156344500Y-124924515D01*
X156344500Y-126175483D01*
X156344807Y-126188022D01*
X156347212Y-126236950D01*
X156348132Y-126249433D01*
X156360124Y-126371201D01*
X156360127Y-126371219D01*
X156363507Y-126394010D01*
X156363807Y-126396028D01*
X156376783Y-126461272D01*
X156379156Y-126533671D01*
X156380033Y-126533729D01*
X156379500Y-126541862D01*
X156379500Y-127068133D01*
X156380924Y-127078951D01*
X156385741Y-127115549D01*
X156385742Y-127115550D01*
X156389234Y-127123038D01*
X156405428Y-127169083D01*
X156410008Y-127187797D01*
X156414249Y-127284859D01*
X156381024Y-127376156D01*
X156315389Y-127447788D01*
X156227343Y-127488850D01*
X156212998Y-127492361D01*
X156153801Y-127499500D01*
X154140597Y-127499500D01*
X154092015Y-127494715D01*
X154073114Y-127490955D01*
X153983355Y-127453773D01*
X153914658Y-127385073D01*
X153877480Y-127295313D01*
X153877481Y-127198158D01*
X153877482Y-127198154D01*
X153880364Y-127183668D01*
X153898897Y-127127045D01*
X153900765Y-127123038D01*
X153903134Y-127117957D01*
X153905464Y-127113099D01*
X153912812Y-127098198D01*
X153914789Y-127090636D01*
X153910499Y-127048413D01*
X153910499Y-126541862D01*
X153904259Y-126494455D01*
X153904258Y-126494452D01*
X153903493Y-126488638D01*
X153909849Y-126391691D01*
X153943324Y-126317809D01*
X153993487Y-126242735D01*
X154031637Y-126150634D01*
X154050591Y-126055346D01*
X154055500Y-126005500D01*
X154055500Y-123712232D01*
X154055192Y-123699696D01*
X154053993Y-123675289D01*
X154053071Y-123662781D01*
X154035537Y-123484762D01*
X154031857Y-123459959D01*
X154022334Y-123412085D01*
X154016242Y-123387764D01*
X153967884Y-123228349D01*
X153959438Y-123204743D01*
X153940759Y-123159647D01*
X153934405Y-123146212D01*
X153910799Y-123051968D01*
X153910635Y-123047986D01*
X153910499Y-123043875D01*
X153910499Y-122731862D01*
X153904259Y-122684455D01*
X153904257Y-122684450D01*
X153899746Y-122668973D01*
X153895930Y-122625349D01*
X153906506Y-122528771D01*
X153953236Y-122443593D01*
X154029006Y-122382781D01*
X154122270Y-122355594D01*
X154128183Y-122355077D01*
X154202971Y-122359852D01*
X154204358Y-122360155D01*
X154229595Y-122367070D01*
X154297291Y-122389502D01*
X154297294Y-122389502D01*
X154297299Y-122389504D01*
X154297305Y-122389505D01*
X154400023Y-122399999D01*
X154549999Y-122399998D01*
X154550000Y-122399998D01*
X154550000Y-121463472D01*
X154553002Y-121448377D01*
X154536527Y-121450000D01*
X153700003Y-121450000D01*
X153700002Y-121450000D01*
X153700001Y-121450001D01*
X153700001Y-121450002D01*
X153700001Y-121699982D01*
X153710415Y-121801933D01*
X153710416Y-121801935D01*
X153710494Y-121802699D01*
X153710495Y-121802702D01*
X153765640Y-121969119D01*
X153765641Y-121969120D01*
X153786342Y-122002682D01*
X153786343Y-122002684D01*
X153811770Y-122043908D01*
X153833203Y-122087773D01*
X153839924Y-122105831D01*
X153855398Y-122201745D01*
X153832989Y-122296281D01*
X153776109Y-122375045D01*
X153693441Y-122426037D01*
X153685880Y-122428852D01*
X153599002Y-122444500D01*
X153249413Y-122444500D01*
X153177132Y-122433778D01*
X153012251Y-122383761D01*
X153012218Y-122383752D01*
X152987917Y-122377665D01*
X152940049Y-122368143D01*
X152940044Y-122368142D01*
X152940040Y-122368141D01*
X152940004Y-122368135D01*
X152915256Y-122364464D01*
X152915239Y-122364462D01*
X152915237Y-122364462D01*
X152891970Y-122362170D01*
X152749448Y-122348133D01*
X152724401Y-122346903D01*
X152724398Y-122346903D01*
X152675602Y-122346903D01*
X152675598Y-122346903D01*
X152650549Y-122348133D01*
X152484749Y-122364463D01*
X152484735Y-122364465D01*
X152459958Y-122368140D01*
X152459952Y-122368142D01*
X152412101Y-122377660D01*
X152412081Y-122377664D01*
X152387774Y-122383753D01*
X152387750Y-122383760D01*
X152385469Y-122384452D01*
X152385130Y-122384485D01*
X152384821Y-122384571D01*
X152384806Y-122384517D01*
X152288780Y-122393960D01*
X152195813Y-122365744D01*
X152137154Y-122322233D01*
X150652267Y-120837346D01*
X150621297Y-120799607D01*
X150611885Y-120785520D01*
X150574708Y-120695759D01*
X150574711Y-120598604D01*
X150611893Y-120508846D01*
X150680594Y-120440149D01*
X150770153Y-120403012D01*
X150783738Y-120400299D01*
X150786647Y-120399718D01*
X150835008Y-120394895D01*
X153430954Y-120390667D01*
X153479539Y-120395374D01*
G37*
%TD.AperFunction*%
%TA.AperFunction,Conductor*%
G36*
X160214022Y-120379721D02*
G01*
X160221037Y-120379906D01*
X160221599Y-120380034D01*
X160532712Y-120396822D01*
X160546768Y-120397980D01*
X160560707Y-120399530D01*
X160574502Y-120401458D01*
X160865241Y-120450422D01*
X160878902Y-120453118D01*
X160892554Y-120456214D01*
X160906043Y-120459674D01*
X161189484Y-120540920D01*
X161202799Y-120545146D01*
X161215973Y-120549737D01*
X161229032Y-120554703D01*
X161326010Y-120594734D01*
X161501539Y-120667190D01*
X161514298Y-120672880D01*
X161526891Y-120678927D01*
X161539305Y-120685323D01*
X161631188Y-120735973D01*
X161631196Y-120735976D01*
X161631202Y-120735980D01*
X161721072Y-120785520D01*
X161797490Y-120827645D01*
X161809523Y-120834725D01*
X161814364Y-120837759D01*
X161862887Y-120877497D01*
X161877139Y-120892542D01*
X161928906Y-120974744D01*
X161933036Y-120985530D01*
X161949500Y-121074569D01*
X161949500Y-121762630D01*
X161944713Y-121811219D01*
X161941416Y-121827790D01*
X161904232Y-121917548D01*
X161835530Y-121986244D01*
X161745769Y-122023419D01*
X161648614Y-122023414D01*
X161558865Y-121986236D01*
X161468962Y-121926164D01*
X161464999Y-121924523D01*
X161460579Y-121920895D01*
X161447740Y-121914033D01*
X161423384Y-121909188D01*
X161374676Y-121899500D01*
X161374674Y-121899500D01*
X159825326Y-121899500D01*
X159825323Y-121899500D01*
X159770525Y-121910399D01*
X159752259Y-121914033D01*
X159669400Y-121969397D01*
X159669397Y-121969400D01*
X159614033Y-122052259D01*
X159614033Y-122052260D01*
X159599500Y-122125323D01*
X159599500Y-123674676D01*
X159614033Y-123747739D01*
X159669397Y-123830599D01*
X159683562Y-123844764D01*
X159686286Y-123848396D01*
X159686209Y-123848474D01*
X159695482Y-123857746D01*
X159713352Y-123884489D01*
X159714569Y-123886112D01*
X159714905Y-123886814D01*
X159749460Y-123938525D01*
X159756381Y-123973317D01*
X159756573Y-123973717D01*
X159756615Y-123974493D01*
X159768416Y-124033813D01*
X159761687Y-124067645D01*
X159761855Y-124070729D01*
X159760057Y-124075837D01*
X159749464Y-124129102D01*
X159732257Y-124154854D01*
X159729611Y-124162377D01*
X159720276Y-124172786D01*
X159695490Y-124209884D01*
X159674324Y-124224029D01*
X159664748Y-124234709D01*
X159642093Y-124245571D01*
X159614750Y-124263846D01*
X159610694Y-124265527D01*
X159593213Y-124269007D01*
X159577143Y-124276713D01*
X159546001Y-124278408D01*
X159515410Y-124284500D01*
X159124026Y-124284500D01*
X159075441Y-124279714D01*
X159054983Y-124275644D01*
X158965225Y-124238462D01*
X158896528Y-124169761D01*
X158859352Y-124080003D01*
X158855283Y-124059545D01*
X158850499Y-124010972D01*
X158850499Y-124001866D01*
X158850499Y-124001862D01*
X158844259Y-123954455D01*
X158795747Y-123850421D01*
X158768735Y-123823409D01*
X158737772Y-123785679D01*
X158726185Y-123768338D01*
X158689005Y-123678579D01*
X158689004Y-123581424D01*
X158726181Y-123491668D01*
X158737768Y-123474326D01*
X158768734Y-123436591D01*
X158795747Y-123409579D01*
X158844259Y-123305545D01*
X158850500Y-123258139D01*
X158850499Y-122731862D01*
X158844259Y-122684455D01*
X158795747Y-122580421D01*
X158714579Y-122499253D01*
X158714578Y-122499252D01*
X158714577Y-122499251D01*
X158655832Y-122471857D01*
X158655829Y-122471856D01*
X158610549Y-122450742D01*
X158610547Y-122450741D01*
X158578941Y-122446580D01*
X158563139Y-122444500D01*
X158563138Y-122444500D01*
X158245250Y-122444500D01*
X158236980Y-122443949D01*
X158230652Y-122442246D01*
X158204955Y-122439715D01*
X158182293Y-122435207D01*
X158092534Y-122398026D01*
X158073327Y-122385192D01*
X158035596Y-122354228D01*
X157718829Y-122037461D01*
X157687865Y-121999730D01*
X157675031Y-121980523D01*
X157637850Y-121890764D01*
X157637806Y-121890540D01*
X157637728Y-121890146D01*
X157636941Y-121797592D01*
X157638274Y-121790201D01*
X157641719Y-121779535D01*
X157642426Y-121772964D01*
X157647671Y-121742320D01*
X157654998Y-121711303D01*
X157650499Y-121678993D01*
X157650499Y-120702128D01*
X157648484Y-120683392D01*
X157648050Y-120634587D01*
X157649909Y-120613816D01*
X157677282Y-120520597D01*
X157738245Y-120444949D01*
X157823515Y-120398389D01*
X157835138Y-120394750D01*
X157909123Y-120383376D01*
X160207136Y-120379635D01*
X160214022Y-120379721D01*
G37*
%TD.AperFunction*%
%TD*%
%TA.AperFunction,Conductor*%
%TO.N,+BATT*%
G36*
X157746183Y-123914398D02*
G01*
X157842108Y-123933477D01*
X157935655Y-123961854D01*
X158064312Y-124022002D01*
X158066263Y-124023723D01*
X158067959Y-124024426D01*
X158190108Y-124096899D01*
X158193563Y-124099710D01*
X158269115Y-124161714D01*
X158338285Y-124230884D01*
X158400289Y-124306436D01*
X158454634Y-124387769D01*
X158500710Y-124473970D01*
X158538145Y-124564345D01*
X158566520Y-124657884D01*
X158585602Y-124753819D01*
X158597597Y-124875600D01*
X158600000Y-124924513D01*
X158600000Y-126175486D01*
X158597597Y-126224399D01*
X158585602Y-126346180D01*
X158566520Y-126442115D01*
X158538148Y-126535648D01*
X158500710Y-126626029D01*
X158454634Y-126712230D01*
X158400289Y-126793563D01*
X158338285Y-126869115D01*
X158269115Y-126938285D01*
X158193563Y-127000289D01*
X158112230Y-127054634D01*
X158026029Y-127100710D01*
X157935650Y-127138146D01*
X157891628Y-127151500D01*
X157842115Y-127166520D01*
X157746178Y-127185602D01*
X157648911Y-127195182D01*
X157551090Y-127195182D01*
X157453822Y-127185602D01*
X157357884Y-127166520D01*
X157264345Y-127138145D01*
X157173970Y-127100710D01*
X157087769Y-127054634D01*
X157006436Y-127000289D01*
X156930884Y-126938285D01*
X156861714Y-126869115D01*
X156799710Y-126793563D01*
X156745365Y-126712230D01*
X156699289Y-126626029D01*
X156661855Y-126535659D01*
X156633477Y-126442108D01*
X156614397Y-126346176D01*
X156602403Y-126224395D01*
X156600000Y-126175486D01*
X156600000Y-124924513D01*
X156602403Y-124875604D01*
X156614397Y-124753823D01*
X156633477Y-124657893D01*
X156661856Y-124564336D01*
X156699289Y-124473970D01*
X156745365Y-124387769D01*
X156799706Y-124306441D01*
X156861717Y-124230880D01*
X156930880Y-124161717D01*
X157006441Y-124099706D01*
X157087769Y-124045365D01*
X157131478Y-124022002D01*
X157173973Y-123999287D01*
X157264336Y-123961856D01*
X157357893Y-123933477D01*
X157453816Y-123914398D01*
X157551093Y-123904817D01*
X157648907Y-123904817D01*
X157746183Y-123914398D01*
G37*
%TD.AperFunction*%
%TD*%
%TA.AperFunction,Conductor*%
%TO.N,GND*%
G36*
X175940426Y-57469685D02*
G01*
X175958205Y-57490204D01*
X175960981Y-57487429D01*
X176559437Y-58085885D01*
X176557374Y-58086740D01*
X176418156Y-58179762D01*
X176299762Y-58298156D01*
X176206740Y-58437374D01*
X176205885Y-58439437D01*
X175647850Y-57881402D01*
X175647849Y-57881403D01*
X175570177Y-57988310D01*
X175454052Y-58216215D01*
X175454051Y-58216218D01*
X175375013Y-58459476D01*
X175335000Y-58712110D01*
X175335000Y-58967889D01*
X175375013Y-59220523D01*
X175454051Y-59463781D01*
X175454052Y-59463784D01*
X175570175Y-59691686D01*
X175647850Y-59798595D01*
X175647850Y-59798596D01*
X176205884Y-59240561D01*
X176206740Y-59242626D01*
X176299762Y-59381844D01*
X176418156Y-59500238D01*
X176557374Y-59593260D01*
X176559437Y-59594114D01*
X176001402Y-60152148D01*
X176108313Y-60229824D01*
X176336215Y-60345947D01*
X176336218Y-60345948D01*
X176579476Y-60424986D01*
X176759673Y-60453527D01*
X176822808Y-60483456D01*
X176859739Y-60542768D01*
X176858741Y-60612630D01*
X176820131Y-60670863D01*
X176756168Y-60698977D01*
X176740275Y-60700000D01*
X175074000Y-60700000D01*
X175006961Y-60680315D01*
X174961206Y-60627511D01*
X174950000Y-60576000D01*
X174950000Y-57574000D01*
X174969685Y-57506961D01*
X175022489Y-57461206D01*
X175074000Y-57450000D01*
X175873387Y-57450000D01*
X175940426Y-57469685D01*
G37*
%TD.AperFunction*%
%TA.AperFunction,Conductor*%
G36*
X178973996Y-57463515D02*
G01*
X179006794Y-57480226D01*
X179057590Y-57528199D01*
X179074500Y-57590711D01*
X179074500Y-59713811D01*
X179054815Y-59780850D01*
X179038181Y-59801492D01*
X178175992Y-60663681D01*
X178114669Y-60697166D01*
X178088311Y-60700000D01*
X177179725Y-60700000D01*
X177112686Y-60680315D01*
X177066931Y-60627511D01*
X177056987Y-60558353D01*
X177086012Y-60494797D01*
X177144790Y-60457023D01*
X177160327Y-60453527D01*
X177340523Y-60424986D01*
X177583781Y-60345948D01*
X177583784Y-60345947D01*
X177811685Y-60229825D01*
X177918595Y-60152148D01*
X177918596Y-60152148D01*
X177360562Y-59594114D01*
X177362626Y-59593260D01*
X177501844Y-59500238D01*
X177620238Y-59381844D01*
X177713260Y-59242626D01*
X177714114Y-59240562D01*
X178272148Y-59798596D01*
X178272148Y-59798595D01*
X178349825Y-59691685D01*
X178465947Y-59463784D01*
X178465948Y-59463781D01*
X178544986Y-59220523D01*
X178585000Y-58967889D01*
X178585000Y-58712110D01*
X178544986Y-58459476D01*
X178465948Y-58216218D01*
X178465947Y-58216215D01*
X178349824Y-57988313D01*
X178272148Y-57881403D01*
X178272148Y-57881402D01*
X177714114Y-58439436D01*
X177713260Y-58437374D01*
X177620238Y-58298156D01*
X177501844Y-58179762D01*
X177362626Y-58086740D01*
X177360561Y-58085884D01*
X177959018Y-57487429D01*
X177961972Y-57490383D01*
X177986444Y-57465576D01*
X178046612Y-57450000D01*
X178917702Y-57450000D01*
X178973996Y-57463515D01*
G37*
%TD.AperFunction*%
%TA.AperFunction,Conductor*%
G36*
X181020426Y-57469685D02*
G01*
X181038205Y-57490204D01*
X181040981Y-57487429D01*
X181639437Y-58085885D01*
X181637374Y-58086740D01*
X181498156Y-58179762D01*
X181379762Y-58298156D01*
X181286740Y-58437374D01*
X181285885Y-58439437D01*
X180727850Y-57881402D01*
X180727849Y-57881403D01*
X180650177Y-57988310D01*
X180534052Y-58216215D01*
X180534051Y-58216218D01*
X180455013Y-58459476D01*
X180415000Y-58712110D01*
X180415000Y-58967889D01*
X180455013Y-59220523D01*
X180534051Y-59463781D01*
X180534052Y-59463784D01*
X180650175Y-59691686D01*
X180727850Y-59798595D01*
X180727850Y-59798596D01*
X181285884Y-59240561D01*
X181286740Y-59242626D01*
X181379762Y-59381844D01*
X181498156Y-59500238D01*
X181637374Y-59593260D01*
X181639437Y-59594114D01*
X181081402Y-60152148D01*
X181188313Y-60229824D01*
X181416215Y-60345947D01*
X181416218Y-60345948D01*
X181659476Y-60424986D01*
X181839673Y-60453527D01*
X181902808Y-60483456D01*
X181939739Y-60542768D01*
X181938741Y-60612630D01*
X181900131Y-60670863D01*
X181836168Y-60698977D01*
X181820275Y-60700000D01*
X179359688Y-60700000D01*
X179292649Y-60680315D01*
X179246894Y-60627511D01*
X179236950Y-60558353D01*
X179265975Y-60494797D01*
X179272006Y-60488319D01*
X179306798Y-60453527D01*
X179599859Y-60160466D01*
X179599862Y-60160465D01*
X179660465Y-60099862D01*
X179681891Y-60062750D01*
X179703318Y-60025639D01*
X179725500Y-59942853D01*
X179725500Y-59857147D01*
X179725500Y-57657962D01*
X179745185Y-57590923D01*
X179797989Y-57545168D01*
X179807430Y-57541317D01*
X179809306Y-57540640D01*
X179989622Y-57482052D01*
X180032918Y-57459991D01*
X180040228Y-57457355D01*
X180055524Y-57456427D01*
X180082298Y-57450000D01*
X180953387Y-57450000D01*
X181020426Y-57469685D01*
G37*
%TD.AperFunction*%
%TA.AperFunction,Conductor*%
G36*
X183352148Y-59798596D02*
G01*
X183352148Y-59798595D01*
X183429825Y-59691685D01*
X183465515Y-59621640D01*
X183513489Y-59570844D01*
X183581310Y-59554049D01*
X183647445Y-59576586D01*
X183690897Y-59631301D01*
X183700000Y-59677935D01*
X183700000Y-60576000D01*
X183680315Y-60643039D01*
X183627511Y-60688794D01*
X183576000Y-60700000D01*
X182259725Y-60700000D01*
X182192686Y-60680315D01*
X182146931Y-60627511D01*
X182136987Y-60558353D01*
X182166012Y-60494797D01*
X182224790Y-60457023D01*
X182240327Y-60453527D01*
X182420523Y-60424986D01*
X182663781Y-60345948D01*
X182663784Y-60345947D01*
X182891685Y-60229825D01*
X182998595Y-60152148D01*
X182998596Y-60152148D01*
X182440562Y-59594114D01*
X182442626Y-59593260D01*
X182581844Y-59500238D01*
X182700238Y-59381844D01*
X182793260Y-59242626D01*
X182794114Y-59240562D01*
X183352148Y-59798596D01*
G37*
%TD.AperFunction*%
%TA.AperFunction,Conductor*%
G36*
X183643039Y-57469685D02*
G01*
X183688794Y-57522489D01*
X183700000Y-57574000D01*
X183700000Y-58002064D01*
X183680315Y-58069103D01*
X183627511Y-58114858D01*
X183558353Y-58124802D01*
X183494797Y-58095777D01*
X183465515Y-58058359D01*
X183429824Y-57988313D01*
X183352148Y-57881403D01*
X183352148Y-57881402D01*
X182794114Y-58439436D01*
X182793260Y-58437374D01*
X182700238Y-58298156D01*
X182581844Y-58179762D01*
X182442626Y-58086740D01*
X182440561Y-58085884D01*
X183039018Y-57487429D01*
X183041972Y-57490383D01*
X183066444Y-57465576D01*
X183126612Y-57450000D01*
X183576000Y-57450000D01*
X183643039Y-57469685D01*
G37*
%TD.AperFunction*%
%TD*%
%TA.AperFunction,Conductor*%
%TO.N,/Aux/IgnitionPower*%
G36*
X152890195Y-122618732D02*
G01*
X152938067Y-122628255D01*
X153097483Y-122676613D01*
X153183165Y-122722411D01*
X153190710Y-122731604D01*
X153267408Y-122763374D01*
X153330082Y-122800939D01*
X153458860Y-122906625D01*
X153493374Y-122941139D01*
X153599058Y-123069914D01*
X153626178Y-123110502D01*
X153704707Y-123257421D01*
X153723386Y-123302517D01*
X153771744Y-123461932D01*
X153781267Y-123509806D01*
X153798801Y-123687825D01*
X153800000Y-123712232D01*
X153800000Y-126005500D01*
X153781046Y-126100788D01*
X153727070Y-126181570D01*
X153646288Y-126235546D01*
X153551000Y-126254500D01*
X151849000Y-126254500D01*
X151753712Y-126235546D01*
X151672930Y-126181570D01*
X151618954Y-126100788D01*
X151600000Y-126005500D01*
X151600000Y-123712232D01*
X151601199Y-123687826D01*
X151618732Y-123509807D01*
X151628255Y-123461932D01*
X151676615Y-123302510D01*
X151695289Y-123257427D01*
X151773826Y-123110493D01*
X151800935Y-123069922D01*
X151906631Y-122941132D01*
X151941132Y-122906631D01*
X152069922Y-122800935D01*
X152110493Y-122773826D01*
X152257427Y-122695289D01*
X152302510Y-122676615D01*
X152461934Y-122628254D01*
X152509802Y-122618732D01*
X152675602Y-122602403D01*
X152724398Y-122602403D01*
X152890195Y-122618732D01*
G37*
%TD.AperFunction*%
%TD*%
M02*
